<?xml version="1.0" encoding="utf-8"?>
<!-- Generator: Adobe Illustrator 16.0.0, SVG Export Plug-In . SVG Version: 6.00 Build 0)  -->
<!DOCTYPE svg PUBLIC "-//W3C//DTD SVG 1.1//EN" "http://www.w3.org/Graphics/SVG/1.1/DTD/svg11.dtd">
<svg version="1.1" id="Layer_1" xmlns="http://www.w3.org/2000/svg" xmlns:xlink="http://www.w3.org/1999/xlink" x="0px" y="0px"
	 width="600px" height="600px" viewBox="0 0 600 600" enable-background="new 0 0 600 600" xml:space="preserve">
<g>
	<path fill="#E8E8E8" d="M0,0v600h600V0H0z M593.979,594H6V6.021h587.979V594z"/>
	<path fill="#FFFFFF" d="M281.449,426.577c2.247,0,4.069-0.827,5.466-2.479c1.397-1.65,2.096-3.732,2.096-6.244v-3.795
		c0-2.057-0.671-3.804-2.011-5.238c-1.341-1.435-3.049-2.152-5.126-2.152c-2.455,0-4.386,0.916-5.792,2.747
		c-1.407,1.831-2.11,4.371-2.11,7.618c0,2.944,0.675,5.271,2.025,6.98S279.164,426.577,281.449,426.577z"/>
	<path fill="#FFFFFF" d="M244.42,419.086c-0.953,0.67-1.43,1.844-1.43,3.525c0,1.228,0.439,2.232,1.317,3.016
		c0.878,0.784,2.053,1.176,3.526,1.176c2.001,0,3.657-0.703,4.97-2.108c1.312-1.408,1.968-3.178,1.968-5.312v-2.521l-6.089,0.85
		C246.794,417.957,245.373,418.415,244.42,419.086z"/>
	<path fill="#FFFFFF" d="M6,594h587.979V6.021H6V594z M228.759,427.608c-2.728,2.784-6.396,4.178-11.002,4.178
		c-4.474,0-8.048-1.354-10.719-4.064c-2.672-2.709-4.007-6.3-4.007-10.774c0-4.871,1.392-8.676,4.177-11.413
		c2.784-2.737,6.537-4.106,11.257-4.106c4.531,0,8.061,1.331,10.591,3.992c2.53,2.662,3.795,6.354,3.795,11.073
		C232.851,421.119,231.487,424.824,228.759,427.608z M231.503,289.866c6.742-6.815,17.659-6.751,24.394,0
		c6.741,6.742,6.741,17.651,0,24.395c-6.735,6.741-17.66,6.741-24.394,0C224.76,307.518,224.76,296.607,231.503,289.866z
		 M261.116,431.108h-6.372v-4.531h-0.113c-2.002,3.474-4.938,5.211-8.808,5.211c-2.851,0-5.084-0.774-6.698-2.322
		c-1.614-1.548-2.421-3.597-2.421-6.146c0-5.476,3.153-8.666,9.459-9.572l8.609-1.218c0-4.136-1.964-6.202-5.891-6.202
		c-3.455,0-6.571,1.188-9.346,3.568v-5.749c3.059-1.813,6.589-2.72,10.592-2.72c7.325,0,10.988,3.606,10.989,10.819V431.108z
		 M310.647,431.107h-6.57v-29h6.57V431.107z M310.223,394.927c-0.773,0.728-1.719,1.091-2.832,1.091
		c-1.075,0-1.996-0.35-2.762-1.048c-0.763-0.698-1.146-1.586-1.146-2.661c0-1.076,0.383-1.973,1.146-2.69
		c0.766-0.718,1.687-1.076,2.762-1.076c1.113,0,2.058,0.358,2.832,1.076c0.773,0.717,1.161,1.614,1.161,2.69
		C311.384,393.327,310.996,394.2,310.223,394.927z M304.27,341.934c-8.167,0-14.789-6.621-14.789-14.789s6.621-14.789,14.789-14.789
		c8.168,0,14.789,6.621,14.789,14.789S312.438,341.934,304.27,341.934z M393.668,430.612c-0.803,0.746-1.78,1.119-2.931,1.119
		c-1.134,0-2.097-0.373-2.89-1.119c-0.793-0.745-1.188-1.639-1.188-2.677c0-1.058,0.396-1.964,1.188-2.719s1.756-1.133,2.89-1.133
		c1.151,0,2.128,0.378,2.931,1.133s1.204,1.661,1.204,2.719C394.872,428.974,394.471,429.867,393.668,430.612z M415.829,425.217
		c0.793-0.755,1.756-1.133,2.889-1.133c1.151,0,2.128,0.378,2.932,1.133c0.803,0.755,1.203,1.661,1.203,2.719
		c0,1.038-0.4,1.932-1.203,2.677c-0.804,0.746-1.78,1.119-2.932,1.119c-1.133,0-2.096-0.373-2.889-1.119
		c-0.793-0.745-1.189-1.639-1.189-2.677C414.64,426.878,415.036,425.972,415.829,425.217z M401.839,425.217
		c0.793-0.755,1.756-1.133,2.889-1.133c1.151,0,2.129,0.378,2.932,1.133s1.204,1.661,1.204,2.719c0,1.038-0.401,1.932-1.204,2.677
		c-0.803,0.746-1.78,1.119-2.932,1.119c-1.133,0-2.096-0.373-2.889-1.119c-0.793-0.745-1.188-1.639-1.188-2.677
		C400.65,426.878,401.046,425.972,401.839,425.217z M389.917,231.634c5.441,0,9.853,4.412,9.853,9.853
		c0,5.442-4.411,9.853-9.853,9.853s-9.853-4.411-9.853-9.853C380.064,236.045,384.476,231.634,389.917,231.634z M364.829,173.528
		c4.081,0,7.39,3.309,7.39,7.39s-3.309,7.39-7.39,7.39s-7.39-3.309-7.39-7.39S360.748,173.528,364.829,173.528z M364.837,289.723
		c6.807,0,12.325,5.518,12.325,12.325c0,6.808-5.519,12.325-12.325,12.325s-12.325-5.518-12.325-12.325
		C352.512,295.241,358.03,289.723,364.837,289.723z M354.688,405.789c2.321-2.907,5.512-4.361,9.571-4.361
		c3.832,0,6.673,1.567,8.524,4.701h0.113h0.002v-4.022h6.569v26.678c0,10.648-5.353,15.973-16.058,15.973
		c-3.777,0-7.071-0.632-9.884-1.896v-6.004c3.172,1.813,6.182,2.719,9.033,2.719c6.892,0,10.338-3.39,10.338-10.167v-3.172h-0.113
		c-2.171,3.699-5.438,5.551-9.799,5.551c-3.53,0-6.377-1.289-8.538-3.865c-2.162-2.578-3.243-6.037-3.243-10.38
		C351.204,412.614,352.365,408.696,354.688,405.789z M342.565,404.5c1.66,2.049,2.491,5.009,2.491,8.879v17.729h-6.569v-16.342
		c0-5.419-1.916-8.128-5.749-8.128c-2.001,0-3.653,0.75-4.956,2.252c-1.304,1.5-1.954,3.395-1.954,5.679v16.539h-6.6v-29h6.6v4.813
		h0.113c2.171-3.663,5.305-5.494,9.401-5.494C338.496,401.428,340.902,402.452,342.565,404.5z M304.27,131.187
		c13.614,0,24.65,11.036,24.65,24.65s-11.036,24.65-24.65,24.65c-13.613,0-24.649-11.036-24.649-24.65
		S290.656,131.187,304.27,131.187z M270.816,405.761c2.369-2.889,5.527-4.333,9.473-4.333c3.908,0,6.749,1.567,8.524,4.701h0.113
		h0.001v-17.955h6.57v42.935h-6.57v-4.929h-0.113c-2.115,3.738-5.372,5.607-9.771,5.607c-3.568,0-6.424-1.298-8.567-3.896
		c-2.143-2.595-3.214-6.13-3.214-10.604C267.262,412.491,268.446,408.65,270.816,405.761z M243.699,158.732
		c12.253,0,22.186,9.933,22.186,22.186s-9.933,22.186-22.186,22.186c-12.253,0-22.186-9.933-22.186-22.186
		S231.446,158.732,243.699,158.732z M218.61,221.779c10.888,0,19.715,8.827,19.715,19.715c0,10.888-8.827,19.715-19.715,19.715
		s-19.715-8.827-19.715-19.715C198.895,230.605,207.722,221.779,218.61,221.779z M177.287,390.496h6.74v34.919h15.746v5.692h-22.486
		V390.496z"/>
	<path fill="#FFFFFF" d="M360.024,409.427c-1.406,1.843-2.109,4.414-2.109,7.719c0,2.851,0.674,5.131,2.025,6.839
		c1.349,1.709,3.138,2.563,5.365,2.563c2.266,0,4.106-0.815,5.522-2.45c1.416-1.632,2.124-3.723,2.124-6.271h0.001v-3.768
		c0-2.038-0.674-3.781-2.024-5.225c-1.351-1.445-3.035-2.167-5.056-2.167C363.38,406.666,361.43,407.587,360.024,409.427z"/>
	<path fill="#FFFFFF" d="M224.029,409.272c-1.387-1.737-3.375-2.605-5.961-2.605c-2.568,0-4.598,0.896-6.089,2.69
		c-1.491,1.794-2.237,4.267-2.237,7.42c0,3.04,0.755,5.433,2.266,7.18c1.511,1.746,3.531,2.619,6.061,2.619
		c2.586,0,4.573-0.859,5.961-2.577c1.387-1.718,2.081-4.163,2.081-7.335C226.111,413.473,225.416,411.009,224.029,409.272z"/>
	<circle fill="#2BA8E0" cx="304.27" cy="155.837" r="24.65"/>
	<circle fill="#2BA8E0" cx="304.27" cy="327.145" r="14.789"/>
	<circle fill="#2BA8E0" cx="243.699" cy="180.918" r="22.186"/>
	<circle fill="#2BA8E0" cx="364.837" cy="302.048" r="12.325"/>
	<circle fill="#2BA8E0" cx="218.61" cy="241.494" r="19.715"/>
	<circle fill="#2BA8E0" cx="389.917" cy="241.487" r="9.853"/>
	<path fill="#2BA8E0" d="M255.897,314.261c6.741-6.743,6.741-17.653,0-24.395c-6.735-6.751-17.652-6.815-24.394,0
		c-6.743,6.741-6.743,17.651,0,24.395C238.237,321.002,249.162,321.002,255.897,314.261z"/>
	<circle fill="#2BA8E0" cx="364.829" cy="180.918" r="7.39"/>
	<polygon fill="#2799C1" points="199.773,425.415 184.027,425.415 184.027,390.496 177.287,390.496 177.287,431.107 
		199.773,431.107 	"/>
	<path fill="#2799C1" d="M218.465,401.428c-4.72,0-8.473,1.369-11.257,4.106c-2.785,2.737-4.177,6.542-4.177,11.413
		c0,4.475,1.335,8.065,4.007,10.774c2.671,2.71,6.245,4.064,10.719,4.064c4.606,0,8.274-1.394,11.002-4.178
		s4.092-6.489,4.092-11.115c0-4.72-1.265-8.411-3.795-11.073C226.526,402.759,222.996,401.428,218.465,401.428z M218.069,426.576
		c-2.53,0-4.55-0.873-6.061-2.619c-1.511-1.747-2.266-4.14-2.266-7.18c0-3.153,0.746-5.626,2.237-7.42
		c1.491-1.795,3.521-2.69,6.089-2.69c2.586,0,4.574,0.868,5.961,2.605c1.387,1.736,2.082,4.2,2.082,7.392
		c0,3.172-0.694,5.617-2.081,7.335C222.642,425.717,220.655,426.576,218.069,426.576z"/>
	<path fill="#2799C1" d="M250.127,401.428c-4.003,0-7.533,0.906-10.592,2.72v5.749c2.775-2.38,5.891-3.568,9.346-3.568
		c3.927,0,5.891,2.066,5.891,6.202l-8.609,1.218c-6.306,0.906-9.459,4.097-9.459,9.572c0,2.549,0.807,4.598,2.421,6.146
		c1.614,1.548,3.847,2.322,6.698,2.322c3.87,0,6.806-1.737,8.808-5.211h0.113v4.531h6.372v-18.861
		C261.115,405.034,257.452,401.428,250.127,401.428z M254.771,419.383c0,2.134-0.656,3.903-1.968,5.312
		c-1.313,1.405-2.969,2.108-4.97,2.108c-1.473,0-2.648-0.392-3.526-1.176c-0.878-0.783-1.317-1.788-1.317-3.016
		c0-1.682,0.477-2.855,1.43-3.525c0.953-0.671,2.374-1.129,4.262-1.374l6.089-0.85V419.383z"/>
	<path fill="#2799C1" d="M279.043,431.787c4.399,0,7.656-1.869,9.771-5.607h0.113v4.929h6.57v-42.935h-6.57v17.955h-0.001h-0.113
		c-1.775-3.134-4.616-4.701-8.524-4.701c-3.946,0-7.104,1.444-9.473,4.333c-2.37,2.89-3.554,6.73-3.554,11.526
		c0,4.475,1.071,8.01,3.214,10.604C272.619,430.489,275.475,431.787,279.043,431.787z M276.082,409.415
		c1.406-1.831,3.337-2.747,5.792-2.747c2.077,0,3.785,0.718,5.126,2.152c1.34,1.435,2.011,3.182,2.011,5.238v3.795
		c0,2.512-0.699,4.594-2.096,6.244c-1.397,1.652-3.219,2.479-5.466,2.479c-2.285,0-4.102-0.854-5.452-2.563s-2.025-4.036-2.025-6.98
		C273.972,413.786,274.675,411.246,276.082,409.415z"/>
	<rect x="304.077" y="402.107" fill="#2799C1" width="6.57" height="29"/>
	<path fill="#2799C1" d="M307.391,388.542c-1.075,0-1.996,0.358-2.762,1.076c-0.764,0.718-1.146,1.614-1.146,2.69
		c0,1.075,0.384,1.963,1.146,2.661c0.766,0.698,1.687,1.048,2.762,1.048c1.113,0,2.059-0.363,2.832-1.091
		c0.773-0.727,1.161-1.6,1.161-2.618c0-1.076-0.388-1.974-1.161-2.69C309.448,388.9,308.504,388.542,307.391,388.542z"/>
	<path fill="#2799C1" d="M325.941,406.922h-0.113v-4.813h-6.6v29h6.6v-16.539c0-2.284,0.65-4.179,1.954-5.679
		c1.303-1.502,2.955-2.252,4.956-2.252c3.833,0,5.749,2.709,5.749,8.128v16.342h6.569v-17.729c0-3.87-0.831-6.83-2.491-8.879
		c-1.663-2.048-4.069-3.072-7.223-3.072C331.246,401.428,328.112,403.259,325.941,406.922z"/>
	<path fill="#2799C1" d="M362.985,431.787c4.36,0,7.628-1.852,9.799-5.551h0.113v3.172c0,6.777-3.446,10.167-10.338,10.167
		c-2.852,0-5.861-0.906-9.033-2.719v6.004c2.813,1.265,6.106,1.896,9.884,1.896c10.705,0,16.058-5.324,16.058-15.973v-26.678h-6.569
		v4.022h-0.002h-0.113c-1.852-3.134-4.692-4.701-8.524-4.701c-4.06,0-7.25,1.454-9.571,4.361c-2.322,2.907-3.483,6.825-3.483,11.753
		c0,4.343,1.081,7.802,3.243,10.38C356.608,430.498,359.455,431.787,362.985,431.787z M365.873,406.666
		c2.021,0,3.705,0.722,5.056,2.167c1.351,1.443,2.024,3.187,2.024,5.225v3.768h-0.001c0,2.549-0.708,4.64-2.124,6.271
		c-1.416,1.635-3.257,2.45-5.522,2.45c-2.228,0-4.017-0.854-5.365-2.563c-1.352-1.708-2.025-3.988-2.025-6.839
		c0-3.305,0.703-5.876,2.109-7.719C361.43,407.587,363.38,406.666,365.873,406.666z"/>
	<path fill="#2799C1" d="M390.737,424.084c-1.134,0-2.097,0.378-2.89,1.133s-1.188,1.661-1.188,2.719
		c0,1.038,0.396,1.932,1.188,2.677c0.793,0.746,1.756,1.119,2.89,1.119c1.15,0,2.128-0.373,2.931-1.119
		c0.803-0.745,1.204-1.639,1.204-2.677c0-1.058-0.401-1.964-1.204-2.719S391.889,424.084,390.737,424.084z"/>
	<path fill="#2799C1" d="M404.728,431.731c1.151,0,2.129-0.373,2.932-1.119c0.803-0.745,1.204-1.639,1.204-2.677
		c0-1.058-0.401-1.964-1.204-2.719s-1.78-1.133-2.932-1.133c-1.133,0-2.096,0.378-2.889,1.133s-1.188,1.661-1.188,2.719
		c0,1.038,0.396,1.932,1.188,2.677C402.632,431.358,403.595,431.731,404.728,431.731z"/>
	<path fill="#2799C1" d="M418.718,431.731c1.151,0,2.128-0.373,2.932-1.119c0.803-0.745,1.203-1.639,1.203-2.677
		c0-1.058-0.4-1.964-1.203-2.719c-0.804-0.755-1.78-1.133-2.932-1.133c-1.133,0-2.096,0.378-2.889,1.133s-1.189,1.661-1.189,2.719
		c0,1.038,0.396,1.932,1.189,2.677C416.622,431.358,417.585,431.731,418.718,431.731z"/>
</g>
</svg>
