<?xml version="1.0" encoding="utf-8"?>
<!-- Generator: Adobe Illustrator 16.0.0, SVG Export Plug-In . SVG Version: 6.00 Build 0)  -->
<!DOCTYPE svg PUBLIC "-//W3C//DTD SVG 1.1//EN" "http://www.w3.org/Graphics/SVG/1.1/DTD/svg11.dtd">
<svg version="1.1" id="Layer_1" xmlns="http://www.w3.org/2000/svg" xmlns:xlink="http://www.w3.org/1999/xlink" x="0px" y="0px"
	 width="600px" height="600px" viewBox="0 0 600 600" enable-background="new 0 0 600 600" xml:space="preserve">
<g>
	<path fill="#E8E8E8" d="M0,0v600h600V0H0z M594.979,594H7V6.021h587.979V594z"/>
	<polygon fill="#FFFFFF" points="222.452,152.17 184.574,156.821 222.452,152.17 	"/>
	<path fill="#FFFFFF" d="M383.468,391.498c-1.433,0-2.647,0.523-3.642,1.568c-0.995,1.046-1.608,2.415-1.838,4.104h10.186
		c-0.015-1.789-0.438-3.183-1.269-4.179C386.074,391.996,384.929,391.498,383.468,391.498z"/>
	<path fill="#FFFFFF" d="M413.137,460.506c-2.117,0-3.91,0.771-5.38,2.315c-1.473,1.545-2.376,3.566-2.714,6.063h15.044
		c-0.021-2.646-0.646-4.703-1.872-6.175C416.986,461.24,415.295,460.506,413.137,460.506z"/>
	<path fill="#FFFFFF" d="M315.844,474.867c-1.07,0.751-1.604,2.068-1.604,3.951c0,1.376,0.492,2.502,1.477,3.38
		c0.982,0.879,2.301,1.317,3.951,1.317c2.242,0,4.098-0.788,5.569-2.364c1.471-1.576,2.206-3.559,2.206-5.951v-2.825l-6.824,0.953
		C318.504,473.603,316.91,474.116,315.844,474.867z"/>
	<path fill="#FFFFFF" d="M247.955,474.867c-1.069,0.751-1.603,2.068-1.603,3.951c0,1.376,0.492,2.502,1.476,3.38
		c0.983,0.879,2.301,1.317,3.951,1.317c2.242,0,4.099-0.788,5.57-2.364c1.471-1.576,2.206-3.559,2.206-5.951v-2.825l-6.824,0.953
		C250.615,473.603,249.022,474.116,247.955,474.867z"/>
	<path fill="#FFFFFF" d="M362.929,397.406c0-1.547-0.512-2.868-1.535-3.964c-1.025-1.096-2.303-1.644-3.836-1.644
		c-1.891,0-3.37,0.699-4.437,2.095c-1.068,1.396-1.602,3.349-1.6,5.854c0,2.163,0.512,3.893,1.537,5.188
		c1.023,1.297,2.381,1.944,4.07,1.944c1.718,0,3.114-0.619,4.188-1.858c1.074-1.238,1.611-2.825,1.611-4.759V397.406z"/>
	<path fill="#FFFFFF" d="M329.103,401.22c-0.725,0.509-1.086,1.4-1.086,2.675c0,0.932,0.334,1.694,1,2.288
		c0.666,0.595,1.557,0.892,2.674,0.892c1.519,0,2.775-0.534,3.771-1.601c0.994-1.066,1.491-2.409,1.491-4.028v-1.913l-4.618,0.646
		C330.903,400.364,329.825,400.712,329.103,401.22z"/>
	<path fill="#FFFFFF" d="M359.561,460.949c-2.625,0-4.734,0.933-6.332,2.793c-1.597,1.862-2.396,4.189-2.396,6.982v4.031
		c0,2.369,0.756,4.38,2.27,6.029c1.512,1.651,3.433,2.477,5.76,2.477c2.731,0,4.873-1.063,6.429-3.189
		c1.555-2.127,2.332-5.094,2.33-8.902c0-3.194-0.725-5.696-2.174-7.507C363.999,461.854,362.035,460.949,359.561,460.949z"/>
	<path fill="#FFFFFF" d="M184.494,449.589h-0.127c-0.191,1.204-0.403,2.157-0.635,2.854l-6.252,18.154h13.933l-6.316-18.154
		C184.907,451.853,184.705,450.9,184.494,449.589z"/>
	<polygon fill="#FFFFFF" points="405.649,305.282 394.458,289.298 394.458,289.298 405.649,305.283 425.748,178.399 
		425.748,178.399 	"/>
	<path fill="#FFFFFF" d="M7,594h587.979V6.021H7V594z M197.506,488.341l-4.094-11.584h-17.9l-3.936,11.584h-8.252l17.043-45.514
		h8.506l16.917,45.514H197.506z M222.722,399.384v-19.853h4.92v30.81h-5.586l-14.717-22.646c-0.373-0.572-0.681-1.167-0.924-1.783
		h-0.129c0.114,0.659,0.172,2.07,0.172,4.232v20.196h-4.941v-30.81h5.951l14.223,22.107c0.601,0.917,0.988,1.547,1.16,1.891h0.086
		C222.792,402.713,222.722,401.331,222.722,399.384z M225.245,488.34h-7.966l-11.965-32.5h7.998l7.205,22.725
		c0.55,1.672,0.889,3.132,1.016,4.38h0.095c0.191-1.564,0.487-2.983,0.889-4.253l7.552-22.852h7.744L225.245,488.34z
		 M233.292,399.598c0-3.695,1.056-6.581,3.169-8.658c2.112-2.076,4.959-3.115,8.54-3.115c3.437,0,6.116,1.01,8.035,3.029
		s2.879,4.82,2.879,8.399c0,3.511-1.035,6.321-3.104,8.434c-2.07,2.113-4.852,3.169-8.347,3.169c-3.395,0-6.106-1.027-8.132-3.083
		C234.305,405.718,233.292,402.992,233.292,399.598z M266.665,488.341h-7.141v-5.078h-0.127c-2.244,3.894-5.534,5.84-9.871,5.84
		c-3.195,0-5.696-0.868-7.506-2.604c-1.808-1.734-2.713-4.03-2.713-6.888c0-6.136,3.534-9.711,10.601-10.727l9.648-1.365
		c0-4.634-2.201-6.951-6.602-6.951c-3.872,0-7.364,1.334-10.474,4v-6.443c3.428-2.03,7.384-3.047,11.87-3.047
		c8.21,0,12.314,4.042,12.315,12.124V488.341z M283.009,488.34h-7.363v-32.5h7.363V488.34z M282.534,447.793
		c-0.868,0.816-1.926,1.223-3.174,1.223c-1.206,0-2.238-0.392-3.095-1.174c-0.856-0.782-1.285-1.777-1.285-2.983
		s0.429-2.211,1.285-3.015c0.858-0.806,1.889-1.207,3.095-1.207c1.248,0,2.306,0.402,3.174,1.206
		c0.867,0.804,1.301,1.809,1.301,3.015C283.834,446,283.4,446.979,282.534,447.793z M273.618,410.341v-30.81h5.264v30.81H273.618z
		 M300.021,488.34h-7.396v-48.115h7.396V488.34z M306.22,393.754c-0.91,1.304-1.365,2.865-1.365,4.684v11.902h-5.006v-12.396
		c0-4.096-1.446-6.145-4.339-6.145c-1.346,0-2.453,0.617-3.319,1.848c-0.867,1.232-1.3,2.829-1.3,4.791v11.902h-4.984v-22h4.984
		v3.479h0.086c1.59-2.664,3.903-3.996,6.939-3.996c1.518,0,2.847,0.419,3.986,1.257c1.14,0.838,1.915,1.938,2.33,3.299
		c1.633-3.037,4.069-4.556,7.305-4.556c4.843,0,7.263,2.986,7.263,8.959v13.558h-4.984v-11.988c0-2.306-0.327-3.976-0.977-5.006
		c-0.652-1.031-1.752-1.547-3.301-1.547C308.235,391.799,307.128,392.45,306.22,393.754z M334.555,488.341h-7.143v-5.078h-0.127
		c-2.242,3.894-5.532,5.84-9.869,5.84c-3.195,0-5.697-0.868-7.508-2.604c-1.809-1.734-2.714-4.03-2.714-6.888
		c0-6.136,3.534-9.711,10.603-10.727l9.647-1.365c0-4.634-2.202-6.951-6.602-6.951c-3.873,0-7.364,1.334-10.476,4v-6.443
		c3.429-2.03,7.386-3.047,11.871-3.047c8.209,0,12.314,4.042,12.316,12.124V488.341z M341.767,410.342h-4.834v-3.438h-0.086
		c-1.519,2.636-3.745,3.953-6.683,3.953c-2.161,0-3.854-0.587-5.079-1.762c-1.226-1.175-1.839-2.729-1.839-4.662
		c0-4.154,2.394-6.574,7.177-7.263l6.53-0.924c0-3.137-1.489-4.705-4.469-4.705c-2.621,0-4.984,0.902-7.09,2.707v-4.361
		c2.32-1.375,4.999-2.063,8.035-2.063c5.558,0,8.336,2.736,8.337,8.208V410.342z M371.273,484.199
		c-2.602,3.269-6.157,4.903-10.664,4.903c-4.231,0-7.427-1.819-9.585-5.459h-0.127v4.697h-7.363v-48.115h7.363v21.328h0.127
		c2.519-4.317,6.199-6.476,11.045-6.476c4.104,0,7.315,1.455,9.631,4.365c2.319,2.909,3.478,6.807,3.478,11.695
		C375.178,476.577,373.877,480.93,371.273,484.199z M362.8,406.645c-1.647,2.808-4.125,4.211-7.435,4.211
		c-2.678,0-4.838-0.977-6.477-2.932c-1.642-1.955-2.461-4.579-2.461-7.874c0-3.738,0.881-6.71,2.643-8.917
		c1.762-2.205,4.184-3.309,7.262-3.309c2.908,0,5.064,1.189,6.468,3.566h0.086v-3.051h4.983v20.237
		c0,8.078-4.061,12.117-12.182,12.117c-2.864,0-5.363-0.479-7.498-1.438V414.7c2.407,1.375,4.692,2.063,6.854,2.063
		c5.229,0,7.842-2.571,7.842-7.713v-2.406H362.8z M390.095,488.34h-7.396v-48.115h7.396V488.34z M392.983,400.692h-14.996
		c0.059,2.034,0.685,3.603,1.881,4.705s2.84,1.654,4.931,1.654c2.35,0,4.505-0.701,6.467-2.105v4.019
		c-2.005,1.261-4.654,1.891-7.949,1.891c-3.235,0-5.774-0.999-7.615-2.997c-1.842-1.998-2.762-4.809-2.762-8.433
		c0-3.424,1.014-6.213,3.041-8.368c2.026-2.155,4.543-3.233,7.551-3.233s5.336,0.967,6.981,2.899
		c1.647,1.935,2.471,4.619,2.471,8.057V400.692z M427.197,474.09h-22.152c0.084,3.004,1.009,5.32,2.776,6.949
		c1.766,1.631,4.194,2.444,7.283,2.444c3.471,0,6.655-1.037,9.554-3.111v5.937c-2.962,1.862-6.877,2.793-11.742,2.793
		c-4.782,0-8.533-1.477-11.251-4.428c-2.721-2.951-4.079-7.104-4.079-12.457c0-5.057,1.497-9.178,4.49-12.362
		c2.994-3.183,6.714-4.776,11.156-4.776c4.443,0,7.881,1.429,10.315,4.285c2.432,2.855,3.648,6.823,3.648,11.901h0.001V474.09z
		 M164.146,137.643l61.81-7.589l0.226-1.426c0.31-1.957,2.148-3.292,4.105-2.981l13.782,2.183l137.688-16.906
		c1.967-0.241,3.756,1.157,3.998,3.124l4.536,36.941l56.54,8.955c1.959,0.311,3.291,2.148,2.981,4.105l-26.813,169.307
		c-0.311,1.957-2.146,3.291-4.105,2.982l-177.967-28.188l-55.014,6.755c-1.965,0.242-3.756-1.156-3.998-3.123l-20.889-170.14
		C160.782,139.674,162.181,137.884,164.146,137.643z"/>
	<polygon fill="#FFFFFF" points="366.576,134.475 368.174,147.485 368.174,147.485 366.576,134.474 321.198,140.045 
		321.201,140.046 	"/>
	<path fill="#FFFFFF" d="M249.222,404.946c1.053-1.302,1.579-3.158,1.579-5.563c0-2.419-0.526-4.289-1.579-5.607
		c-1.052-1.318-2.56-1.977-4.522-1.977c-1.948,0-3.488,0.681-4.619,2.041c-1.132,1.361-1.697,3.237-1.698,5.629
		c0,2.306,0.573,4.122,1.719,5.445c1.146,1.325,2.679,1.987,4.598,1.987C246.661,406.901,248.168,406.25,249.222,404.946z"/>
	<rect x="376.856" y="218.195" fill="#FFFFFF" width="0" height="0.001"/>
	<rect x="373.055" y="187.233" fill="#FFFFFF" width="0" height="0"/>
	<path fill="#2899C1" d="M221.69,401.639l-14.223-22.107h-5.951v30.81h4.941v-20.196c0-2.162-0.058-3.573-0.172-4.232h0.129
		c0.243,0.616,0.551,1.211,0.924,1.783l14.717,22.646h5.586v-30.81h-4.92v19.853c0,1.947,0.071,3.329,0.215,4.146h-0.086
		C222.679,403.186,222.292,402.556,221.69,401.639z"/>
	<path fill="#2899C1" d="M252.811,407.687c2.069-2.112,3.104-4.923,3.104-8.434c0-3.579-0.96-6.38-2.879-8.399
		s-4.598-3.029-8.035-3.029c-3.581,0-6.428,1.039-8.54,3.115c-2.113,2.077-3.169,4.963-3.169,8.658c0,3.395,1.013,6.12,3.04,8.175
		c2.026,2.056,4.737,3.083,8.132,3.083C247.958,410.855,250.741,409.8,252.811,407.687z M240.102,404.914
		c-1.146-1.323-1.719-3.14-1.719-5.445c0.001-2.392,0.566-4.268,1.698-5.629c1.131-1.36,2.671-2.041,4.619-2.041
		c1.962,0,3.47,0.658,4.522,1.977c1.053,1.318,1.579,3.188,1.579,5.607c0,2.405-0.526,4.262-1.579,5.563
		c-1.053,1.304-2.561,1.955-4.522,1.955C242.781,406.901,241.248,406.239,240.102,404.914z"/>
	<rect x="273.618" y="379.531" fill="#2899C1" width="5.264" height="30.81"/>
	<path fill="#2899C1" d="M312.838,393.346c0.649,1.03,0.977,2.7,0.977,5.006v11.988h4.984v-13.558c0-5.973-2.42-8.959-7.263-8.959
		c-3.235,0-5.672,1.519-7.305,4.556c-0.415-1.36-1.19-2.461-2.33-3.299c-1.139-0.838-2.468-1.257-3.986-1.257
		c-3.036,0-5.349,1.332-6.939,3.996h-0.086v-3.479h-4.984v22h4.984v-11.902c0-1.962,0.433-3.559,1.3-4.791
		c0.866-1.23,1.973-1.848,3.319-1.848c2.893,0,4.339,2.049,4.339,6.145v12.396h5.006v-11.902c0-1.818,0.455-3.38,1.365-4.684
		c0.908-1.304,2.016-1.955,3.317-1.955C311.086,391.799,312.186,392.314,312.838,393.346z"/>
	<path fill="#2899C1" d="M333.43,387.824c-3.036,0-5.715,0.688-8.035,2.063v4.361c2.105-1.805,4.469-2.707,7.09-2.707
		c2.979,0,4.469,1.568,4.469,4.705l-6.53,0.924c-4.783,0.688-7.177,3.108-7.177,7.263c0,1.934,0.613,3.487,1.839,4.662
		c1.225,1.175,2.918,1.762,5.079,1.762c2.938,0,5.164-1.317,6.683-3.953h0.086v3.438h4.834v-14.31
		C341.766,390.561,338.987,387.824,333.43,387.824z M336.953,401.445c0,1.619-0.497,2.962-1.491,4.028
		c-0.996,1.066-2.253,1.601-3.771,1.601c-1.117,0-2.008-0.297-2.674-0.892c-0.666-0.594-1-1.356-1-2.288
		c0-1.274,0.361-2.166,1.086-2.675c0.723-0.508,1.801-0.855,3.232-1.042l4.618-0.646V401.445z"/>
	<path fill="#2899C1" d="M355.044,416.764c-2.162,0-4.447-0.688-6.854-2.063v4.556c2.135,0.959,4.634,1.438,7.498,1.438
		c8.121,0,12.182-4.039,12.182-12.117V388.34h-4.983v3.051H362.8c-1.403-2.377-3.56-3.566-6.468-3.566
		c-3.078,0-5.5,1.104-7.262,3.309c-1.762,2.207-2.643,5.179-2.643,8.917c0,3.295,0.819,5.919,2.461,7.874
		c1.639,1.955,3.799,2.932,6.477,2.932c3.31,0,5.787-1.403,7.435-4.211h0.086v2.406
		C362.886,414.192,360.272,416.764,355.044,416.764z M361.317,405.022c-1.074,1.239-2.471,1.858-4.188,1.858
		c-1.689,0-3.047-0.647-4.07-1.944c-1.025-1.296-1.537-3.025-1.537-5.188c-0.002-2.506,0.531-4.458,1.6-5.854
		c1.066-1.396,2.546-2.095,4.437-2.095c1.533,0,2.811,0.548,3.836,1.644c1.023,1.096,1.535,2.417,1.535,3.964v2.857
		C362.929,402.197,362.392,403.784,361.317,405.022z"/>
	<path fill="#2899C1" d="M383.531,387.824c-3.008,0-5.524,1.078-7.551,3.233c-2.027,2.155-3.041,4.944-3.041,8.368
		c0,3.624,0.92,6.435,2.762,8.433c1.841,1.998,4.38,2.997,7.615,2.997c3.295,0,5.944-0.63,7.949-1.891v-4.019
		c-1.962,1.404-4.117,2.105-6.467,2.105c-2.091,0-3.734-0.552-4.931-1.654s-1.822-2.671-1.881-4.705h14.996v-1.912
		c0-3.438-0.823-6.122-2.471-8.057C388.867,388.791,386.539,387.824,383.531,387.824z M377.988,397.17
		c0.229-1.688,0.843-3.058,1.838-4.104c0.994-1.045,2.209-1.568,3.642-1.568c1.461,0,2.606,0.498,3.438,1.493
		c0.831,0.996,1.254,2.39,1.269,4.179H377.988z"/>
	<path fill="#2899C1" d="M180.368,442.827l-17.043,45.514h8.252l3.936-11.584h17.9l4.094,11.584h8.284l-16.917-45.514H180.368z
		 M177.479,470.598l6.252-18.154c0.232-0.697,0.444-1.65,0.635-2.854h0.127c0.211,1.312,0.413,2.264,0.603,2.854l6.316,18.154
		H177.479z"/>
	<path fill="#2899C1" d="M222.517,478.691c-0.402,1.27-0.698,2.688-0.889,4.253h-0.095c-0.127-1.248-0.466-2.708-1.016-4.38
		l-7.205-22.725h-7.998l11.965,32.5h7.966l12.568-32.5h-7.744L222.517,478.691z"/>
	<path fill="#2899C1" d="M254.35,455.078c-4.486,0-8.442,1.017-11.87,3.047v6.443c3.11-2.666,6.602-4,10.474-4
		c4.401,0,6.602,2.317,6.602,6.951l-9.648,1.365c-7.067,1.016-10.601,4.591-10.601,10.727c0,2.857,0.905,5.153,2.713,6.888
		c1.81,1.735,4.311,2.604,7.506,2.604c4.337,0,7.627-1.946,9.871-5.84h0.127v5.078h7.141v-21.139
		C266.664,459.12,262.56,455.078,254.35,455.078z M259.555,475.2c0,2.393-0.735,4.375-2.206,5.951
		c-1.471,1.576-3.328,2.364-5.57,2.364c-1.65,0-2.968-0.438-3.951-1.317c-0.984-0.878-1.476-2.004-1.476-3.38
		c0-1.883,0.534-3.2,1.603-3.951c1.068-0.751,2.66-1.265,4.776-1.539l6.824-0.953V475.2z"/>
	<path fill="#2899C1" d="M279.359,440.637c-1.206,0-2.237,0.401-3.095,1.207c-0.856,0.804-1.285,1.809-1.285,3.015
		s0.429,2.201,1.285,2.983c0.857,0.782,1.889,1.174,3.095,1.174c1.248,0,2.306-0.406,3.174-1.223
		c0.867-0.813,1.301-1.793,1.301-2.936c0-1.206-0.434-2.211-1.301-3.015C281.666,441.039,280.607,440.637,279.359,440.637z"/>
	<rect x="275.646" y="455.84" fill="#2899C1" width="7.363" height="32.5"/>
	<rect x="292.625" y="440.225" fill="#2899C1" width="7.396" height="48.115"/>
	<path fill="#2899C1" d="M322.238,455.078c-4.485,0-8.442,1.017-11.871,3.047v6.443c3.111-2.666,6.603-4,10.476-4
		c4.399,0,6.602,2.317,6.602,6.951l-9.647,1.365c-7.068,1.016-10.603,4.591-10.603,10.727c0,2.857,0.905,5.153,2.714,6.888
		c1.811,1.735,4.313,2.604,7.508,2.604c4.337,0,7.627-1.946,9.869-5.84h0.127v5.078h7.143v-21.139
		C334.553,459.12,330.447,455.078,322.238,455.078z M327.443,475.2c0,2.393-0.735,4.375-2.206,5.951
		c-1.472,1.576-3.327,2.364-5.569,2.364c-1.65,0-2.969-0.438-3.951-1.317c-0.984-0.878-1.477-2.004-1.477-3.38
		c0-1.883,0.533-3.2,1.604-3.951c1.066-0.751,2.66-1.265,4.775-1.539l6.824-0.953V475.2z"/>
	<path fill="#2899C1" d="M362.069,455.078c-4.846,0-8.526,2.158-11.045,6.476h-0.127v-21.328h-7.363v48.115h7.363v-4.697h0.127
		c2.158,3.64,5.354,5.459,9.585,5.459c4.507,0,8.063-1.635,10.664-4.903c2.604-3.27,3.904-7.622,3.904-13.061
		c0-4.889-1.158-8.786-3.478-11.695C369.385,456.533,366.174,455.078,362.069,455.078z M365.291,480.072
		c-1.556,2.126-3.697,3.189-6.429,3.189c-2.327,0-4.248-0.825-5.76-2.477c-1.514-1.649-2.27-3.66-2.27-6.029v-4.031
		c0-2.793,0.799-5.12,2.396-6.982c1.598-1.86,3.707-2.793,6.332-2.793c2.475,0,4.438,0.905,5.887,2.714
		c1.449,1.811,2.174,4.313,2.174,7.507C367.623,474.979,366.846,477.945,365.291,480.072z"/>
	<rect x="382.699" y="440.225" fill="#2899C1" width="7.396" height="48.115"/>
	<path fill="#2899C1" d="M423.548,459.363c-2.435-2.856-5.872-4.285-10.315-4.285c-4.442,0-8.162,1.594-11.156,4.776
		c-2.993,3.185-4.49,7.306-4.49,12.362c0,5.354,1.358,9.506,4.079,12.457c2.718,2.951,6.469,4.428,11.251,4.428
		c4.865,0,8.78-0.931,11.742-2.793v-5.937c-2.898,2.074-6.083,3.111-9.554,3.111c-3.089,0-5.518-0.813-7.283-2.444
		c-1.768-1.629-2.692-3.945-2.776-6.949h22.152v-2.825h-0.001C427.196,466.187,425.979,462.219,423.548,459.363z M405.043,468.885
		c0.338-2.497,1.241-4.519,2.714-6.063c1.47-1.544,3.263-2.315,5.38-2.315c2.158,0,3.85,0.734,5.078,2.204
		c1.227,1.472,1.851,3.528,1.872,6.175H405.043z"/>
	<polygon fill="#FFFFFF" points="321.201,140.046 368.174,147.485 366.576,134.475 	"/>
	<polygon fill="#FFFFFF" points="202.419,278.661 222.452,152.17 184.574,156.821 199.565,278.926 	"/>
	<path fill="#2DA7DF" d="M181.914,311.781c0.242,1.967,2.033,3.365,3.998,3.123l55.014-6.755l177.967,28.188
		c1.959,0.309,3.795-1.025,4.105-2.982l26.813-169.307c0.31-1.957-1.022-3.795-2.981-4.105l-56.54-8.955l-4.536-36.941
		c-0.242-1.967-2.031-3.365-3.998-3.124l-137.688,16.906l-13.782-2.183c-1.957-0.311-3.795,1.024-4.105,2.981l-0.226,1.426
		l-61.81,7.589c-1.965,0.242-3.364,2.032-3.121,3.999L181.914,311.781z M405.649,305.283l-11.191-15.985v0l-18.703-26.715l-0.001,0
		l-10.84-15.483c-0.451-0.644-1.326-0.817-1.988-0.397l-31.57,19.999h-0.002l-6.938,4.395l-2.063-3.56l0,0l-32.713-56.472
		c-0.227-0.393-0.605-0.654-1.071-0.719c-0.448-0.063-0.899,0.087-1.224,0.402l-61.957,60.473l19.244-121.508l181.116,28.687l0,0
		L405.649,305.283z M366.576,134.474l1.598,13.012l0,0l-46.973-7.439l-0.003,0L366.576,134.474z M222.452,152.17L222.452,152.17
		l-20.033,126.491l-2.854,0.265l-14.992-122.104L222.452,152.17z"/>
	<path fill="#2DA7DF" d="M373.055,187.233L373.055,187.233L373.055,187.233c-1.089-0.407-2.233-0.712-3.425-0.901
		c-9.603-1.521-18.615,5.034-20.136,14.633c-1.519,9.601,5.028,18.617,14.63,20.138c4.644,0.736,9.143-0.431,12.731-2.907
		c0,0,0,0,0.001,0l0,0c3.827-2.639,6.618-6.769,7.403-11.724C385.59,198.065,380.728,190.103,373.055,187.233z"/>
	<path fill="#FFFFFF" d="M425.748,178.399l-181.116-28.687l-19.244,121.508l61.957-60.473c0.325-0.315,0.776-0.465,1.224-0.402
		c0.466,0.064,0.844,0.326,1.071,0.719l32.713,56.472l0,0l2.063,3.56l6.938-4.395h0.002l31.57-19.999
		c0.662-0.42,1.537-0.246,1.988,0.397l10.84,15.483l0.001,0l18.703,26.715l11.191,15.984L425.748,178.399z M384.26,206.472
		c-0.785,4.955-3.576,9.084-7.403,11.724c0,0-0.001,0-0.001,0v0c-3.589,2.476-8.088,3.643-12.731,2.907
		c-9.602-1.521-16.148-10.537-14.63-20.138c1.521-9.599,10.533-16.153,20.136-14.633c1.191,0.189,2.336,0.495,3.425,0.901l0,0l0,0
		C380.728,190.103,385.59,198.065,384.26,206.472z"/>
</g>
</svg>
