<?xml version="1.0" encoding="utf-8"?>
<!-- Generator: Adobe Illustrator 16.0.0, SVG Export Plug-In . SVG Version: 6.00 Build 0)  -->
<!DOCTYPE svg PUBLIC "-//W3C//DTD SVG 1.1//EN" "http://www.w3.org/Graphics/SVG/1.1/DTD/svg11.dtd">
<svg version="1.1" id="Layer_1" xmlns="http://www.w3.org/2000/svg" xmlns:xlink="http://www.w3.org/1999/xlink" x="0px" y="0px"
	 width="600px" height="600px" viewBox="0 0 600 600" enable-background="new 0 0 600 600" xml:space="preserve">
<g>
	<path fill="#E8E8E8" d="M0,0v600h600V0H0z M593.99,593.989H6.011V6.01H593.99V593.989z"/>
	<path fill="#FFFFFF" d="M259.699,291.239c0.469-0.01,0.885,0.19,1.169,0.543l43.741,53.854l34.218-30.117
		c0.588-0.52,1.48-0.482,2.025,0.082l49.338,51.094h0.002V238.226H206.819v123.021l51.733-69.418
		C258.824,291.465,259.246,291.249,259.699,291.239z M336.006,254.843c9.713,0,17.6,7.884,17.6,17.602c0,9.721-7.887,17.6-17.6,17.6
		c-9.721,0-17.598-7.88-17.598-17.6C318.408,262.727,326.285,254.843,336.006,254.843z"/>
	<path fill="#FFFFFF" d="M6.011,593.989H593.99V6.01H6.011V593.989z M185.294,220.289c0-1.981,1.607-3.587,3.588-3.587h219.245
		c1.982,0,3.588,1.606,3.588,3.587v171.417c0,1.982-1.605,3.588-3.588,3.588H188.882c-1.981,0-3.588-1.606-3.588-3.588V220.289z"/>
	<path fill="#2DA7DF" d="M188.882,395.294h219.245c1.982,0,3.588-1.605,3.588-3.588V220.289c0-1.981-1.605-3.587-3.588-3.587
		H188.882c-1.98,0-3.588,1.606-3.588,3.587v171.417C185.294,393.688,186.901,395.294,188.882,395.294z M206.819,238.226h183.373
		v128.468h-0.002l-49.338-51.094c-0.545-0.564-1.438-0.602-2.025-0.082l-34.218,30.117l-43.741-53.854
		c-0.284-0.353-0.7-0.553-1.169-0.543c-0.453,0.01-0.875,0.227-1.146,0.59l-51.733,69.418V238.226z"/>
	<path fill="#2DA7DF" d="M336.006,290.045c9.713,0,17.6-7.879,17.6-17.6c0-9.718-7.887-17.602-17.6-17.602
		c-9.721,0-17.598,7.884-17.598,17.602C318.408,282.165,326.285,290.045,336.006,290.045z"/>
</g>
</svg>
