<?xml version="1.0" encoding="iso-8859-1"?>
<!-- Generator: Adobe Illustrator 16.0.0, SVG Export Plug-In . SVG Version: 6.00 Build 0)  -->
<!DOCTYPE svg PUBLIC "-//W3C//DTD SVG 1.1//EN" "http://www.w3.org/Graphics/SVG/1.1/DTD/svg11.dtd">
<svg version="1.1" id="Layer_1" xmlns="http://www.w3.org/2000/svg" xmlns:xlink="http://www.w3.org/1999/xlink" x="0px" y="0px"
	 width="283.46px" height="170.079px" viewBox="0 0 283.46 170.079" style="enable-background:new 0 0 283.46 170.079;"
	 xml:space="preserve">
<g>
	<path style="fill:#FFFFFF;" d="M0,143.722c0,2.266,1.133,4.834,2.846,6.52l14.199,14.213c1.686,1.699,4.255,2.832,6.521,2.832
		c2.293,0,4.834-1.133,6.547-2.832L141.719,52.836l111.634,111.618c1.686,1.699,4.255,2.832,6.52,2.832
		c2.57,0,4.835-1.133,6.548-2.832l14.2-14.213c1.712-1.686,2.845-4.254,2.845-6.52c0-2.279-1.133-4.835-2.845-6.533L148.267,4.852
		c-1.713-1.713-4.255-2.873-6.547-2.873c-2.265,0-4.806,1.16-6.519,2.873L2.846,137.188C1.133,138.887,0,141.442,0,143.722z"/>
</g>
</svg>
