<?xml version="1.0" encoding="iso-8859-1"?>
<!-- Generator: Adobe Illustrator 16.0.0, SVG Export Plug-In . SVG Version: 6.00 Build 0)  -->
<!DOCTYPE svg PUBLIC "-//W3C//DTD SVG 1.1//EN" "http://www.w3.org/Graphics/SVG/1.1/DTD/svg11.dtd">
<svg version="1.1" xmlns="http://www.w3.org/2000/svg" xmlns:xlink="http://www.w3.org/1999/xlink" x="0px" y="0px"
	 width="283.46px" height="283.46px" viewBox="0 0 283.46 283.46" style="enable-background:new 0 0 283.46 283.46;"
	 xml:space="preserve">
<g id="circle-arrow">
	<path d="M212.6,141.733c0-1.475-0.558-3.14-1.658-4.24l-58.879-58.872c-1.291-1.107-2.759-1.849-4.431-1.849
		c-3.316,0-5.899,2.59-5.899,5.913v35.433H76.772c-3.14,0-5.905,2.758-5.905,5.898v35.434c0,3.14,2.766,5.912,5.905,5.912h64.961
		v35.434c0,3.14,2.766,5.913,5.899,5.913c1.481,0,3.14-0.558,4.255-1.673l59.055-59.062
		C212.042,144.873,212.6,143.215,212.6,141.733z M242.12,141.733c0,55.38-45.015,100.409-100.387,100.409
		c-55.365,0-100.395-45.028-100.395-100.409c0-55.358,45.029-100.395,100.395-100.395C197.105,41.338,242.12,86.375,242.12,141.733z
		 M283.466,141.733C283.466,63.487,219.979,0,141.733,0C63.487,0,0,63.487,0,141.733c0,78.253,63.487,141.74,141.733,141.74
		C219.979,283.473,283.466,219.986,283.466,141.733z"/>
</g>
<g id="Layer_1">
</g>
</svg>
