<?xml version="1.0" encoding="utf-8"?>
<!-- Generator: Adobe Illustrator 16.0.0, SVG Export Plug-In . SVG Version: 6.00 Build 0)  -->
<!DOCTYPE svg PUBLIC "-//W3C//DTD SVG 1.1//EN" "http://www.w3.org/Graphics/SVG/1.1/DTD/svg11.dtd">
<svg version="1.1" id="Layer_1" xmlns="http://www.w3.org/2000/svg" xmlns:xlink="http://www.w3.org/1999/xlink" x="0px" y="0px"
	 width="283.46px" height="170.079px" viewBox="0 0 283.46 170.079" enable-background="new 0 0 283.46 170.079"
	 xml:space="preserve">
<g>
	<path fill="#FFFFFF" d="M283.466,25.543c0-2.266-1.133-4.834-2.846-6.52L266.421,4.811c-1.687-1.699-4.256-2.832-6.521-2.832
		c-2.293,0-4.834,1.133-6.547,2.832L141.747,116.429L30.112,4.811c-1.685-1.699-4.254-2.832-6.52-2.832
		c-2.569,0-4.834,1.133-6.547,2.832l-14.2,14.213C1.133,20.709,0,23.278,0,25.543c0,2.279,1.133,4.835,2.845,6.533l132.354,132.336
		c1.713,1.713,4.254,2.873,6.547,2.873c2.265,0,4.806-1.16,6.519-2.873L280.621,32.077
		C282.333,30.378,283.466,27.823,283.466,25.543z"/>
</g>
</svg>
