<?xml version="1.0" encoding="utf-8"?>
<!-- Generator: Adobe Illustrator 17.0.0, SVG Export Plug-In . SVG Version: 6.00 Build 0)  -->
<!DOCTYPE svg PUBLIC "-//W3C//DTD SVG 1.1//EN" "http://www.w3.org/Graphics/SVG/1.1/DTD/svg11.dtd">
<svg version="1.1" id="Layer_1" xmlns="http://www.w3.org/2000/svg" xmlns:xlink="http://www.w3.org/1999/xlink" x="0px" y="0px"
	 width="32px" height="32px" viewBox="0 0 32 32" enable-background="new 0 0 32 32" xml:space="preserve">
<path opacity="0.25" fill="#1866A5" enable-background="new    " d="M16,0C7.163,0,0,7.163,0,16s7.163,16,16,16s16-7.163,16-16
	S24.837,0,16,0 M16,4c6.627,0,12,5.373,12,12s-5.373,12-12,12S4,22.627,4,16S9.373,4,16,4"/>
<path fill="#1866A5" d="M16,0c8.837,0,16,7.163,16,16h-4c0-6.627-5.373-12-12-12V0z">
<animateTransform  type="rotate" fill="remove" from="0 16 16" attributeName="transform" accumulate="none" calcMode="linear" to="360 16 16" additive="replace" dur="0.8s" restart="always" repeatCount="indefinite">
		</animateTransform>
</path>
</svg>
