<?xml version="1.0" encoding="utf-8"?>
<!-- Generator: Adobe Illustrator 16.0.0, SVG Export Plug-In . SVG Version: 6.00 Build 0)  -->
<!DOCTYPE svg PUBLIC "-//W3C//DTD SVG 1.1//EN" "http://www.w3.org/Graphics/SVG/1.1/DTD/svg11.dtd">
<svg version="1.1" id="Layer_1" xmlns="http://www.w3.org/2000/svg" xmlns:xlink="http://www.w3.org/1999/xlink" x="0px" y="0px"
	 width="143px" height="75px" viewBox="0 0 143 75" enable-background="new 0 0 143 75" xml:space="preserve">
<path fill="#FFFFFF" d="M142.438,74.5H0.563v-74h141.875V74.5z M1.563,73.5h139.875v-72H1.563V73.5z"/>
<g>
	<path fill="#FFFFFF" d="M23.251,32.576h1.924v8.621h-1.924V32.576z"/>
	<path fill="#FFFFFF" d="M34.475,32.576h1.924v8.621h-1.924l-4.107-5.402v5.402h-1.924v-8.621h1.801l4.23,5.55V32.576z"/>
	<path fill="#FFFFFF" d="M41.684,34.297c-0.185,0.152-0.277,0.354-0.277,0.604c0,0.251,0.113,0.45,0.339,0.598
		s0.749,0.323,1.566,0.524c0.818,0.202,1.454,0.503,1.906,0.906c0.452,0.403,0.678,0.991,0.678,1.764c0,0.772-0.29,1.399-0.87,1.881
		c-0.58,0.48-1.342,0.722-2.288,0.722c-1.365,0-2.594-0.506-3.688-1.517l1.147-1.406c0.929,0.814,1.789,1.221,2.578,1.221
		c0.353,0,0.631-0.076,0.833-0.228c0.201-0.152,0.302-0.358,0.302-0.617s-0.107-0.464-0.32-0.616
		c-0.214-0.152-0.638-0.307-1.271-0.463c-1.003-0.238-1.737-0.549-2.202-0.931c-0.465-0.382-0.697-0.982-0.697-1.801
		c0-0.818,0.294-1.449,0.882-1.893c0.588-0.444,1.322-0.666,2.202-0.666c0.575,0,1.151,0.099,1.727,0.296
		c0.576,0.197,1.077,0.477,1.505,0.839l-0.975,1.406c-0.748-0.567-1.521-0.851-2.318-0.851
		C42.122,34.068,41.869,34.145,41.684,34.297z"/>
	<path fill="#FFFFFF" d="M54.899,32.576v1.714h-4.292v1.776h3.86v1.641h-3.86v1.788h4.428v1.702h-6.352v-8.621H54.899z"/>
	<path fill="#FFFFFF" d="M64.889,35.438c0,1.381-0.547,2.273-1.64,2.676l2.183,3.084h-2.368l-1.912-2.75H59.82v2.75h-1.924v-8.621
		h3.269c1.34,0,2.296,0.226,2.868,0.678C64.603,33.707,64.889,34.435,64.889,35.438z M62.57,36.461
		c0.239-0.214,0.358-0.553,0.358-1.018c0-0.465-0.124-0.783-0.37-0.956c-0.246-0.173-0.678-0.259-1.295-0.259H59.82v2.553h1.406
		C61.883,36.782,62.332,36.675,62.57,36.461z"/>
	<path fill="#FFFFFF" d="M71.487,34.241v6.956h-1.924v-6.956h-2.442v-1.665h6.809v1.665H71.487z"/>
	<path fill="#FFFFFF" d="M80.885,41.197v-8.621h1.924v6.906h3.676v1.715H80.885z"/>
	<path fill="#FFFFFF" d="M96.055,40.007c-0.871,0.853-1.943,1.276-3.219,1.276s-2.348-0.426-3.219-1.276
		c-0.872-0.851-1.309-1.909-1.309-3.176c0-1.266,0.437-2.325,1.309-3.176c0.871-0.851,1.943-1.276,3.219-1.276
		s2.348,0.425,3.219,1.276c0.872,0.851,1.309,1.91,1.309,3.176C97.361,38.098,96.927,39.156,96.055,40.007z M95.4,36.837
		c0-0.769-0.246-1.425-0.739-1.967s-1.101-0.814-1.819-0.814s-1.324,0.271-1.818,0.814c-0.494,0.542-0.739,1.199-0.739,1.967
		c0,0.769,0.245,1.422,0.739,1.961c0.494,0.538,1.1,0.808,1.818,0.808s1.326-0.27,1.819-0.808S95.4,37.606,95.4,36.837z"/>
	<path fill="#FFFFFF" d="M105.736,36.807h1.938v3.059c-0.855,0.954-2.039,1.431-3.553,1.431c-1.266,0-2.329-0.419-3.188-1.258
		c-0.859-0.839-1.289-1.896-1.289-3.176c0-1.278,0.438-2.345,1.313-3.2s1.932-1.283,3.17-1.283c1.236,0,2.313,0.407,3.225,1.221
		l-0.998,1.443c-0.387-0.337-0.742-0.569-1.066-0.697c-0.325-0.127-0.678-0.191-1.055-0.191c-0.731,0-1.35,0.249-1.851,0.746
		c-0.502,0.498-0.753,1.153-0.753,1.967s0.241,1.466,0.723,1.955c0.48,0.488,1.055,0.732,1.721,0.732s1.221-0.127,1.664-0.382
		V36.807z"/>
	<path fill="#FFFFFF" d="M117.787,40.007c-0.871,0.853-1.944,1.276-3.219,1.276c-1.275,0-2.348-0.426-3.219-1.276
		c-0.873-0.851-1.309-1.909-1.309-3.176c0-1.266,0.436-2.325,1.309-3.176c0.871-0.851,1.943-1.276,3.219-1.276
		c1.274,0,2.348,0.425,3.219,1.276c0.872,0.851,1.309,1.91,1.309,3.176C119.096,38.098,118.659,39.156,117.787,40.007z
		 M117.134,36.837c0-0.769-0.247-1.425-0.739-1.967c-0.494-0.542-1.101-0.814-1.819-0.814c-0.72,0-1.325,0.271-1.819,0.814
		c-0.492,0.542-0.738,1.199-0.738,1.967c0,0.769,0.246,1.422,0.738,1.961c0.494,0.538,1.1,0.808,1.819,0.808
		c0.719,0,1.325-0.27,1.819-0.808C116.887,38.26,117.134,37.606,117.134,36.837z"/>
</g>
</svg>
