<?xml version="1.0" encoding="utf-8"?>
<!-- Generator: Adobe Illustrator 16.0.0, SVG Export Plug-In . SVG Version: 6.00 Build 0)  -->
<!DOCTYPE svg PUBLIC "-//W3C//DTD SVG 1.1//EN" "http://www.w3.org/Graphics/SVG/1.1/DTD/svg11.dtd">
<svg version="1.1" id="Layer_1" xmlns="http://www.w3.org/2000/svg" xmlns:xlink="http://www.w3.org/1999/xlink" x="0px" y="0px"
	 width="193px" height="80px" viewBox="0 0 251 104" enable-background="new 0 0 251 104" xml:space="preserve">
<g>
	<path fill="#010101" d="M38.925,42.525h2.95V60h-2.95V42.525z"/>
	<path fill="#010101" d="M59.2,42.525h2.949V60H58.95l-9.9-12.75V60H46.1V42.525h2.95l10.15,13.05V42.525z"/>
	<path fill="#010101" d="M71.663,44.825c-0.859,0-1.563,0.175-2.113,0.525c-0.55,0.35-0.824,0.879-0.824,1.587
		c0,0.708,0.274,1.25,0.824,1.625c0.551,0.375,1.721,0.779,3.513,1.212c1.792,0.434,3.142,1.042,4.05,1.825
		c0.908,0.784,1.363,1.937,1.363,3.462s-0.575,2.763-1.726,3.713c-1.149,0.949-2.658,1.425-4.524,1.425
		c-2.734,0-5.159-0.941-7.275-2.825l1.85-2.225c1.767,1.533,3.601,2.3,5.5,2.3c0.95,0,1.704-0.204,2.263-0.612
		s0.838-0.95,0.838-1.625c0-0.676-0.263-1.2-0.788-1.575c-0.524-0.375-1.429-0.717-2.712-1.025c-1.284-0.308-2.259-0.591-2.925-0.85
		c-0.667-0.258-1.259-0.596-1.775-1.013c-1.033-0.783-1.55-1.983-1.55-3.6c0-1.616,0.587-2.862,1.763-3.737
		c1.175-0.875,2.629-1.313,4.362-1.313c1.116,0,2.225,0.184,3.325,0.55c1.1,0.367,2.05,0.884,2.85,1.55l-1.575,2.225
		c-0.517-0.466-1.217-0.85-2.1-1.15C73.392,44.975,72.521,44.825,71.663,44.825z"/>
	<path fill="#010101" d="M93.774,42.525V45.3h-9.325v4.625h8.375v2.625h-8.375v4.675h9.625V60H81.499V42.525H93.774z"/>
	<path fill="#010101" d="M111.175,48.2c0,2.883-1.259,4.7-3.775,5.45l4.575,6.35h-3.75l-4.175-5.875h-3.875V60h-2.95V42.525h6.5
		c2.667,0,4.575,0.45,5.726,1.35C110.6,44.775,111.175,46.217,111.175,48.2z M107.25,50.675c0.6-0.516,0.899-1.346,0.899-2.487
		s-0.309-1.925-0.925-2.35c-0.616-0.425-1.717-0.637-3.3-0.637h-3.75v6.25h3.675C105.517,51.45,106.649,51.192,107.25,50.675z"/>
	<path fill="#010101" d="M121.149,45.225V60h-2.95V45.225h-5.3v-2.7h13.55v2.7H121.149z"/>
	<path fill="#010101" d="M135.249,60V42.525h2.95V57.2h7.975V60H135.249z"/>
	<path fill="#010101" d="M162.898,57.588c-1.767,1.725-3.95,2.587-6.55,2.587s-4.783-0.862-6.55-2.587
		c-1.767-1.726-2.65-3.875-2.65-6.45s0.884-4.725,2.65-6.45s3.95-2.587,6.55-2.587s4.783,0.862,6.55,2.587s2.65,3.875,2.65,6.45
		S164.665,55.862,162.898,57.588z M160.736,46.65c-1.192-1.233-2.654-1.85-4.388-1.85s-3.196,0.617-4.388,1.85
		c-1.191,1.234-1.787,2.729-1.787,4.488s0.596,3.254,1.787,4.487s2.654,1.85,4.388,1.85s3.195-0.616,4.388-1.85
		c1.191-1.233,1.787-2.729,1.787-4.487S161.928,47.884,160.736,46.65z"/>
	<path fill="#010101" d="M180.749,51.5h2.949v5.975c-1.649,1.817-4.008,2.726-7.074,2.726c-2.584,0-4.746-0.851-6.488-2.55
		c-1.741-1.7-2.612-3.851-2.612-6.45c0-2.6,0.888-4.767,2.663-6.5c1.774-1.733,3.92-2.6,6.438-2.6c2.516,0,4.607,0.733,6.274,2.2
		l-1.575,2.25c-0.684-0.583-1.371-0.987-2.063-1.212S177.765,45,176.849,45c-1.767,0-3.25,0.571-4.45,1.712
		c-1.2,1.142-1.8,2.642-1.8,4.5c0,1.859,0.583,3.35,1.75,4.475c1.166,1.125,2.579,1.688,4.237,1.688s3.046-0.358,4.163-1.075V51.5z"
		/>
	<path fill="#010101" d="M201.573,57.588c-1.767,1.725-3.95,2.587-6.55,2.587s-4.783-0.862-6.55-2.587
		c-1.767-1.726-2.65-3.875-2.65-6.45s0.884-4.725,2.65-6.45s3.95-2.587,6.55-2.587s4.783,0.862,6.55,2.587s2.65,3.875,2.65,6.45
		S203.34,55.862,201.573,57.588z M199.411,46.65c-1.192-1.233-2.654-1.85-4.388-1.85s-3.196,0.617-4.388,1.85
		c-1.191,1.234-1.787,2.729-1.787,4.488s0.596,3.254,1.787,4.487s2.654,1.85,4.388,1.85s3.195-0.616,4.388-1.85
		c1.191-1.233,1.787-2.729,1.787-4.487S200.603,47.884,199.411,46.65z"/>
</g>
<rect x="0.516" y="0.5" fill="none" stroke="#010101" stroke-miterlimit="10" width="250.067" height="103.031"/>
</svg>
