<?xml version="1.0" encoding="utf-8"?>
<!-- Generator: Adobe Illustrator 17.0.0, SVG Export Plug-In . SVG Version: 6.00 Build 0)  -->
<!DOCTYPE svg PUBLIC "-//W3C//DTD SVG 1.1//EN" "http://www.w3.org/Graphics/SVG/1.1/DTD/svg11.dtd">
<svg version="1.1" id="Layer_1" xmlns="http://www.w3.org/2000/svg" xmlns:xlink="http://www.w3.org/1999/xlink" x="0px" y="0px"
	 width="430px" height="230px" viewBox="0 0 430 230" enable-background="new 0 0 430 230" xml:space="preserve">
<g id="Layer_2">
	<g>
		<path fill="#898989" d="M253.667,70.083c0,3.438-2.812,6.25-6.25,6.25h-62.5c-3.438,0-6.25-2.812-6.25-6.25v-47.5
			c0-3.438,2.812-6.25,6.25-6.25h62.5c3.438,0,6.25,2.812,6.25,6.25V70.083z M184.917,21.333c-0.664,0-1.25,0.586-1.25,1.25v47.5
			c0,0.664,0.586,1.25,1.25,1.25h62.5c0.664,0,1.25-0.586,1.25-1.25v-47.5c0-0.664-0.586-1.25-1.25-1.25H184.917z M196.167,41.333
			c-4.141,0-7.5-3.359-7.5-7.5s3.359-7.5,7.5-7.5s7.5,3.359,7.5,7.5S200.308,41.333,196.167,41.333z M243.667,66.333h-55v-7.5
			l12.5-12.5l6.25,6.25l20-20l16.25,16.25V66.333z"/>
	</g>
	<g>
		<path fill="#898989" d="M131.934,119.913h-2.07l0.207-1.564h-0.046c-0.491,0.583-1.104,1.035-1.84,1.357
			c-0.736,0.322-1.472,0.483-2.208,0.483c-0.844,0-1.587-0.146-2.231-0.438c-0.644-0.291-1.169-0.697-1.575-1.219
			c-0.407-0.521-0.694-1.127-0.863-1.817c-0.168-0.689-0.192-1.44-0.069-2.254c0.107-0.812,0.345-1.567,0.713-2.266
			c0.368-0.697,0.828-1.303,1.38-1.816c0.552-0.514,1.188-0.916,1.909-1.208c0.721-0.291,1.502-0.437,2.346-0.437
			c0.782,0,1.491,0.165,2.127,0.494c0.636,0.33,1.107,0.778,1.415,1.346h0.046l1.127-8.05h2.07L131.934,119.913z M126.506,118.257
			c0.552,0,1.062-0.096,1.529-0.287s0.878-0.452,1.23-0.782c0.353-0.329,0.648-0.728,0.886-1.196
			c0.237-0.467,0.395-0.978,0.472-1.529c0.076-0.552,0.065-1.062-0.035-1.529c-0.1-0.468-0.284-0.866-0.552-1.196
			c-0.268-0.329-0.609-0.59-1.023-0.782c-0.414-0.191-0.897-0.287-1.449-0.287c-0.552,0-1.062,0.096-1.53,0.287
			c-0.468,0.192-0.882,0.453-1.242,0.782c-0.361,0.33-0.656,0.729-0.886,1.196s-0.383,0.978-0.46,1.529s-0.065,1.062,0.035,1.529
			c0.1,0.469,0.279,0.867,0.541,1.196c0.26,0.33,0.602,0.591,1.023,0.782C125.467,118.161,125.954,118.257,126.506,118.257z"/>
		<path fill="#898989" d="M136.58,109.011h2.07l-0.23,1.68h0.046c0.353-0.583,0.859-1.055,1.518-1.415s1.334-0.54,2.024-0.54
			c0.337,0,0.636,0.046,0.897,0.138l-0.414,2.231c-0.169-0.047-0.333-0.085-0.495-0.115s-0.326-0.046-0.495-0.046
			c-1.012,0-1.825,0.283-2.438,0.851s-1.004,1.449-1.173,2.646l-0.759,5.474h-2.07L136.58,109.011z"/>
		<path fill="#898989" d="M143.388,114.462c0.107-0.797,0.36-1.541,0.759-2.23c0.398-0.69,0.897-1.296,1.495-1.817
			c0.598-0.521,1.269-0.932,2.013-1.23c0.744-0.299,1.521-0.448,2.334-0.448c0.812,0,1.548,0.149,2.208,0.448
			c0.659,0.299,1.215,0.709,1.667,1.23c0.452,0.521,0.778,1.127,0.978,1.817c0.199,0.689,0.245,1.434,0.138,2.23
			c-0.123,0.798-0.38,1.545-0.771,2.242c-0.391,0.698-0.886,1.304-1.484,1.817c-0.598,0.514-1.269,0.92-2.012,1.219
			c-0.744,0.3-1.522,0.449-2.334,0.449c-0.813,0-1.553-0.149-2.22-0.449c-0.667-0.299-1.223-0.705-1.667-1.219
			s-0.771-1.119-0.978-1.817C143.307,116.007,143.265,115.26,143.388,114.462z M145.596,114.462
			c-0.077,0.552-0.065,1.062,0.035,1.529c0.1,0.469,0.279,0.867,0.541,1.196c0.26,0.33,0.602,0.591,1.023,0.782
			c0.421,0.191,0.908,0.287,1.46,0.287c0.552,0,1.062-0.096,1.529-0.287s0.878-0.452,1.23-0.782
			c0.353-0.329,0.648-0.728,0.886-1.196c0.237-0.467,0.395-0.978,0.472-1.529c0.076-0.552,0.065-1.062-0.035-1.529
			c-0.1-0.468-0.284-0.866-0.552-1.196c-0.268-0.329-0.609-0.59-1.023-0.782c-0.414-0.191-0.897-0.287-1.449-0.287
			c-0.552,0-1.062,0.096-1.53,0.287c-0.468,0.192-0.882,0.453-1.242,0.782c-0.361,0.33-0.656,0.729-0.886,1.196
			S145.672,113.91,145.596,114.462z"/>
		<path fill="#898989" d="M158.338,109.011h2.07l-0.207,1.564h0.046c0.49-0.583,1.104-1.035,1.84-1.357
			c0.736-0.321,1.472-0.482,2.208-0.482c0.843,0,1.587,0.146,2.231,0.437c0.644,0.292,1.169,0.698,1.576,1.219
			c0.406,0.521,0.69,1.132,0.851,1.829c0.161,0.698,0.188,1.445,0.081,2.242c-0.123,0.813-0.364,1.568-0.724,2.266
			c-0.361,0.698-0.817,1.304-1.369,1.817c-0.552,0.514-1.188,0.916-1.909,1.207s-1.503,0.438-2.346,0.438
			c-0.782,0-1.495-0.165-2.139-0.495c-0.644-0.329-1.112-0.777-1.403-1.346h-0.046l-1.127,8.051h-2.07L158.338,109.011z
			 M163.766,110.667c-0.552,0-1.062,0.096-1.529,0.287c-0.468,0.192-0.882,0.453-1.242,0.782c-0.36,0.33-0.655,0.729-0.885,1.196
			s-0.383,0.978-0.46,1.529c-0.077,0.552-0.065,1.062,0.035,1.529c0.099,0.469,0.279,0.867,0.54,1.196
			c0.261,0.33,0.602,0.591,1.024,0.782c0.421,0.191,0.908,0.287,1.46,0.287c0.552,0,1.062-0.096,1.529-0.287s0.877-0.452,1.23-0.782
			c0.353-0.329,0.647-0.728,0.886-1.196c0.237-0.467,0.395-0.978,0.471-1.529s0.065-1.062-0.034-1.529
			c-0.1-0.468-0.284-0.866-0.552-1.196c-0.269-0.329-0.609-0.59-1.023-0.782C164.801,110.763,164.318,110.667,163.766,110.667z"/>
		<path fill="#898989" d="M178.946,109.011h2.07l-1.518,10.902h-2.07L178.946,109.011z M179.015,105.102
			c0.061-0.414,0.261-0.771,0.598-1.07c0.337-0.299,0.713-0.448,1.127-0.448s0.751,0.149,1.012,0.448
			c0.261,0.3,0.36,0.656,0.299,1.07c-0.062,0.413-0.261,0.771-0.598,1.069c-0.337,0.299-0.713,0.448-1.127,0.448
			s-0.751-0.149-1.012-0.448S178.953,105.515,179.015,105.102z"/>
		<path fill="#898989" d="M189.915,110.805h-2.978l-0.678,4.945c-0.046,0.307-0.081,0.609-0.104,0.908
			c-0.023,0.3-0.004,0.567,0.058,0.806c0.061,0.237,0.188,0.429,0.379,0.575c0.191,0.146,0.486,0.218,0.885,0.218
			c0.245,0,0.502-0.022,0.771-0.068c0.268-0.047,0.518-0.131,0.748-0.253l-0.277,1.886c-0.139,0.077-0.296,0.138-0.474,0.184
			s-0.354,0.081-0.532,0.104c-0.177,0.023-0.346,0.042-0.508,0.058c-0.162,0.016-0.297,0.023-0.404,0.023
			c-0.802,0-1.406-0.111-1.814-0.334c-0.408-0.222-0.693-0.51-0.854-0.862s-0.23-0.748-0.208-1.185s0.065-0.878,0.126-1.322
			l0.805-5.682h-2.392l0.253-1.794h2.392l0.437-3.059h2.07l-0.43,3.059h2.982L189.915,110.805z"/>
		<path fill="#898989" d="M200.289,102.525h2.07l-2.438,17.388h-2.07L200.289,102.525z"/>
		<path fill="#898989" d="M204.889,109.011h2.07l-1.518,10.902h-2.07L204.889,109.011z M204.958,105.102
			c0.061-0.414,0.261-0.771,0.598-1.07c0.337-0.299,0.713-0.448,1.127-0.448s0.751,0.149,1.012,0.448
			c0.261,0.3,0.36,0.656,0.299,1.07c-0.062,0.413-0.261,0.771-0.598,1.069c-0.337,0.299-0.713,0.448-1.127,0.448
			s-0.751-0.149-1.012-0.448S204.896,105.515,204.958,105.102z"/>
		<path fill="#898989" d="M211.167,102.525h2.07l-1.587,11.224l5.359-4.715h2.875l-5.773,4.945l4.692,5.934h-2.944l-4.278-5.658
			l-0.782,5.658h-2.07L211.167,102.525z"/>
		<path fill="#898989" d="M222.852,115.221c-0.062,0.476-0.015,0.909,0.139,1.3c0.154,0.391,0.381,0.725,0.682,1.001
			c0.3,0.275,0.661,0.49,1.085,0.644c0.423,0.153,0.874,0.23,1.351,0.23c0.646,0,1.228-0.15,1.743-0.449
			c0.517-0.299,1.012-0.693,1.487-1.185l1.38,1.196c-1.35,1.487-3.059,2.231-5.129,2.231c-0.859,0-1.614-0.146-2.266-0.438
			c-0.652-0.291-1.185-0.693-1.599-1.207s-0.705-1.119-0.874-1.817c-0.169-0.697-0.191-1.452-0.068-2.266
			c0.106-0.812,0.353-1.567,0.735-2.266c0.383-0.697,0.862-1.303,1.438-1.816s1.227-0.916,1.955-1.208
			c0.729-0.291,1.499-0.437,2.312-0.437c0.966,0,1.76,0.169,2.381,0.506s1.107,0.778,1.46,1.322c0.353,0.545,0.575,1.158,0.667,1.84
			c0.093,0.683,0.093,1.377,0,2.082l-0.115,0.735H222.852z M229.66,113.565c0.046-0.46,0.03-0.882-0.047-1.266
			c-0.077-0.383-0.224-0.717-0.44-1c-0.216-0.284-0.509-0.506-0.88-0.667c-0.37-0.161-0.818-0.242-1.343-0.242
			c-0.51,0-0.988,0.097-1.437,0.288s-0.846,0.44-1.192,0.747c-0.348,0.308-0.63,0.648-0.846,1.023
			c-0.217,0.376-0.348,0.748-0.394,1.116H229.66z"/>
		<path fill="#898989" d="M241.528,109.011h2.07l-1.519,10.902h-2.07L241.528,109.011z M241.597,105.102
			c0.062-0.414,0.261-0.771,0.599-1.07c0.337-0.299,0.713-0.448,1.127-0.448s0.751,0.149,1.012,0.448
			c0.261,0.3,0.36,0.656,0.299,1.07c-0.062,0.413-0.261,0.771-0.598,1.069c-0.338,0.299-0.713,0.448-1.127,0.448
			s-0.752-0.149-1.012-0.448C241.635,105.872,241.536,105.515,241.597,105.102z"/>
		<path fill="#898989" d="M252.498,110.805h-2.978l-0.679,4.945c-0.046,0.307-0.081,0.609-0.104,0.908
			c-0.023,0.3-0.004,0.567,0.058,0.806c0.061,0.237,0.188,0.429,0.379,0.575c0.192,0.146,0.487,0.218,0.886,0.218
			c0.245,0,0.502-0.022,0.771-0.068c0.269-0.047,0.518-0.131,0.748-0.253l-0.278,1.886c-0.139,0.077-0.296,0.138-0.474,0.184
			c-0.177,0.046-0.354,0.081-0.531,0.104c-0.177,0.023-0.347,0.042-0.508,0.058c-0.162,0.016-0.297,0.023-0.404,0.023
			c-0.802,0-1.406-0.111-1.814-0.334c-0.408-0.222-0.693-0.51-0.854-0.862c-0.162-0.353-0.23-0.748-0.208-1.185
			c0.023-0.437,0.065-0.878,0.127-1.322l0.805-5.682h-2.392l0.253-1.794h2.392l0.438-3.059h2.069l-0.43,3.059h2.983L252.498,110.805
			z"/>
		<path fill="#898989" d="M256.961,109.287h-1.887l2.393-5.658h2.208L256.961,109.287z"/>
		<path fill="#898989" d="M265.494,111.748c-0.2-0.307-0.464-0.563-0.794-0.771s-0.755-0.311-1.276-0.311
			c-0.491,0-0.932,0.104-1.322,0.311c-0.392,0.207-0.609,0.51-0.655,0.908c-0.047,0.322,0.019,0.583,0.195,0.782
			c0.176,0.199,0.398,0.36,0.667,0.483c0.268,0.123,0.556,0.215,0.862,0.275c0.307,0.062,0.575,0.115,0.805,0.161
			c0.43,0.107,0.828,0.238,1.196,0.392s0.679,0.353,0.932,0.598s0.433,0.544,0.54,0.896c0.107,0.354,0.131,0.782,0.069,1.288
			c-0.092,0.614-0.296,1.139-0.609,1.576c-0.314,0.437-0.702,0.793-1.162,1.069c-0.46,0.275-0.962,0.476-1.506,0.598
			c-0.545,0.123-1.085,0.185-1.622,0.185c-0.904,0-1.675-0.139-2.312-0.414c-0.636-0.276-1.177-0.782-1.621-1.519l1.725-1.288
			c0.291,0.338,0.63,0.637,1.016,0.897c0.385,0.261,0.878,0.391,1.479,0.391c0.539,0,1.056-0.11,1.549-0.333
			s0.778-0.571,0.855-1.047c0.046-0.307-0.012-0.56-0.174-0.759c-0.161-0.199-0.369-0.356-0.623-0.472s-0.531-0.207-0.832-0.276
			c-0.3-0.068-0.558-0.126-0.773-0.172c-0.432-0.107-0.84-0.23-1.225-0.368s-0.716-0.322-0.993-0.552
			c-0.277-0.23-0.481-0.521-0.612-0.874s-0.157-0.79-0.081-1.312c0.077-0.566,0.265-1.062,0.563-1.483
			c0.3-0.421,0.663-0.771,1.093-1.046c0.43-0.276,0.904-0.483,1.426-0.621c0.521-0.139,1.035-0.207,1.541-0.207
			c0.736,0,1.423,0.138,2.059,0.414c0.637,0.275,1.107,0.735,1.415,1.38L265.494,111.748z"/>
		<path fill="#898989" d="M277.614,102.525h2.07l-1.15,8.165h0.046c0.353-0.583,0.874-1.055,1.564-1.415
			c0.689-0.36,1.456-0.54,2.3-0.54c0.521,0,1.012,0.08,1.472,0.241s0.848,0.41,1.162,0.747c0.313,0.338,0.54,0.771,0.678,1.3
			c0.139,0.529,0.153,1.154,0.047,1.875l-0.967,7.015h-2.069l0.896-6.44c0.062-0.506,0.05-0.938-0.034-1.299
			c-0.085-0.36-0.223-0.651-0.414-0.874c-0.192-0.223-0.434-0.384-0.725-0.483s-0.598-0.149-0.92-0.149
			c-0.43,0-0.84,0.069-1.23,0.207s-0.744,0.356-1.058,0.655c-0.314,0.299-0.579,0.679-0.794,1.139s-0.368,1.005-0.46,1.633
			l-0.782,5.612h-2.069L277.614,102.525z"/>
		<path fill="#898989" d="M288.194,114.462c0.107-0.797,0.36-1.541,0.759-2.23c0.398-0.69,0.897-1.296,1.495-1.817
			c0.599-0.521,1.269-0.932,2.013-1.23c0.743-0.299,1.521-0.448,2.334-0.448c0.813,0,1.549,0.149,2.208,0.448
			s1.216,0.709,1.668,1.23s0.778,1.127,0.978,1.817c0.199,0.689,0.245,1.434,0.138,2.23c-0.123,0.798-0.379,1.545-0.771,2.242
			c-0.391,0.698-0.885,1.304-1.483,1.817c-0.598,0.514-1.269,0.92-2.013,1.219c-0.743,0.3-1.521,0.449-2.334,0.449
			c-0.813,0-1.553-0.149-2.22-0.449c-0.667-0.299-1.223-0.705-1.667-1.219c-0.445-0.514-0.771-1.119-0.978-1.817
			C288.114,116.007,288.071,115.26,288.194,114.462z M290.402,114.462c-0.077,0.552-0.065,1.062,0.034,1.529
			c0.1,0.469,0.28,0.867,0.541,1.196c0.261,0.33,0.602,0.591,1.023,0.782s0.908,0.287,1.46,0.287c0.553,0,1.062-0.096,1.53-0.287
			c0.467-0.191,0.877-0.452,1.23-0.782c0.353-0.329,0.647-0.728,0.885-1.196c0.238-0.467,0.396-0.978,0.472-1.529
			c0.077-0.552,0.065-1.062-0.034-1.529s-0.284-0.866-0.552-1.196c-0.269-0.329-0.609-0.59-1.023-0.782
			c-0.414-0.191-0.897-0.287-1.449-0.287s-1.062,0.096-1.529,0.287c-0.468,0.192-0.882,0.453-1.242,0.782
			c-0.36,0.33-0.655,0.729-0.886,1.196C290.633,113.4,290.479,113.91,290.402,114.462z"/>
		<path fill="#898989" d="M308.756,110.805h-2.978l-0.679,4.945c-0.046,0.307-0.081,0.609-0.104,0.908
			c-0.023,0.3-0.004,0.567,0.058,0.806c0.061,0.237,0.188,0.429,0.379,0.575c0.192,0.146,0.487,0.218,0.886,0.218
			c0.245,0,0.502-0.022,0.771-0.068c0.269-0.047,0.518-0.131,0.748-0.253l-0.278,1.886c-0.139,0.077-0.296,0.138-0.474,0.184
			c-0.177,0.046-0.354,0.081-0.531,0.104c-0.177,0.023-0.347,0.042-0.508,0.058c-0.162,0.016-0.297,0.023-0.404,0.023
			c-0.802,0-1.406-0.111-1.814-0.334c-0.408-0.222-0.693-0.51-0.854-0.862c-0.162-0.353-0.23-0.748-0.208-1.185
			c0.023-0.437,0.065-0.878,0.127-1.322l0.805-5.682h-2.392l0.253-1.794h2.392l0.438-3.059h2.069l-0.43,3.059h2.983L308.756,110.805
			z"/>
	</g>
</g>
<g id="Layer_3">
	<rect x="82" y="169.667" fill="#1866A5" width="267.333" height="59.333"/>
	<g>
		<path fill="#FFFFFF" d="M120.459,205.897c0,0.503-0.408,0.911-0.911,0.911h-13.971c-0.503,0-0.911-0.408-0.911-0.911v-3.037
			c0-0.503,0.408-0.911,0.911-0.911h4.053c0.256,0.702,0.93,1.215,1.718,1.215h2.43c0.788,0,1.461-0.513,1.718-1.215h4.053
			c0.503,0,0.911,0.408,0.911,0.911v3.037H120.459z M116.815,197.09h-2.43v4.252c0,0.332-0.275,0.607-0.607,0.607h-2.43
			c-0.332,0-0.607-0.275-0.607-0.607v-4.252h-2.43c-0.247,0-0.465-0.151-0.56-0.38c-0.095-0.218-0.047-0.483,0.133-0.654
			l4.252-4.252c0.114-0.124,0.275-0.181,0.427-0.181s0.313,0.057,0.427,0.181l4.252,4.252c0.18,0.171,0.228,0.437,0.133,0.654
			C117.28,196.938,117.062,197.09,116.815,197.09z M116.208,204.379c-0.332,0-0.607,0.275-0.607,0.607s0.275,0.607,0.607,0.607
			s0.607-0.275,0.607-0.607S116.54,204.379,116.208,204.379z M118.637,204.379c-0.332,0-0.607,0.275-0.607,0.607
			s0.275,0.607,0.607,0.607s0.607-0.275,0.607-0.607S118.969,204.379,118.637,204.379z"/>
	</g>
</g>
<g>
	<path fill="#FFFFFF" d="M139.077,192.169v7.812c0,0.396,0.054,0.807,0.162,1.232c0.108,0.427,0.288,0.819,0.54,1.18
		c0.252,0.359,0.582,0.653,0.99,0.882c0.408,0.228,0.912,0.342,1.512,0.342s1.104-0.114,1.512-0.342
		c0.408-0.229,0.738-0.522,0.99-0.882c0.252-0.36,0.432-0.753,0.54-1.18c0.108-0.426,0.162-0.837,0.162-1.232v-7.812h1.728v8.082
		c0,0.744-0.126,1.419-0.378,2.025c-0.252,0.605-0.6,1.131-1.044,1.575c-0.444,0.443-0.966,0.785-1.566,1.025
		s-1.248,0.36-1.944,0.36s-1.344-0.12-1.944-0.36c-0.6-0.24-1.122-0.582-1.566-1.025c-0.444-0.444-0.792-0.97-1.044-1.575
		c-0.252-0.606-0.378-1.281-0.378-2.025v-8.082H139.077z"/>
	<path fill="#FFFFFF" d="M149.841,196.381h1.62v1.225h0.036c0.312-0.456,0.741-0.811,1.287-1.062
		c0.546-0.252,1.107-0.378,1.683-0.378c0.66,0,1.257,0.114,1.791,0.342c0.534,0.229,0.99,0.547,1.368,0.954
		c0.378,0.408,0.669,0.885,0.873,1.431c0.204,0.547,0.306,1.132,0.306,1.756c0,0.636-0.102,1.227-0.306,1.772
		s-0.495,1.021-0.873,1.422c-0.378,0.402-0.834,0.718-1.368,0.945c-0.534,0.228-1.131,0.342-1.791,0.342
		c-0.612,0-1.188-0.129-1.728-0.387s-0.954-0.609-1.242-1.053h-0.036v6.3h-1.62V196.381z M154.269,197.677
		c-0.432,0-0.822,0.075-1.17,0.226s-0.642,0.354-0.882,0.611c-0.24,0.259-0.426,0.57-0.558,0.937
		c-0.132,0.366-0.198,0.765-0.198,1.197c0,0.432,0.065,0.831,0.198,1.196c0.132,0.366,0.318,0.679,0.558,0.937
		c0.24,0.258,0.534,0.462,0.882,0.611c0.348,0.15,0.738,0.226,1.17,0.226c0.432,0,0.822-0.075,1.17-0.226
		c0.348-0.149,0.642-0.354,0.882-0.611c0.24-0.258,0.426-0.57,0.558-0.937c0.132-0.365,0.198-0.765,0.198-1.196
		c0-0.433-0.066-0.831-0.198-1.197c-0.132-0.366-0.318-0.678-0.558-0.937c-0.24-0.258-0.534-0.461-0.882-0.611
		S154.701,197.677,154.269,197.677z"/>
	<path fill="#FFFFFF" d="M160.965,191.305h1.62v13.608h-1.62V191.305z"/>
	<path fill="#FFFFFF" d="M164.745,200.647c0-0.624,0.117-1.206,0.351-1.746c0.234-0.54,0.555-1.015,0.963-1.422
		c0.408-0.408,0.888-0.729,1.44-0.964c0.552-0.233,1.146-0.351,1.782-0.351c0.636,0,1.229,0.117,1.782,0.351
		c0.552,0.234,1.032,0.556,1.44,0.964c0.408,0.407,0.729,0.882,0.963,1.422c0.234,0.54,0.351,1.122,0.351,1.746
		s-0.117,1.209-0.351,1.755c-0.234,0.546-0.555,1.02-0.963,1.422c-0.408,0.402-0.888,0.72-1.44,0.954
		c-0.552,0.233-1.146,0.351-1.782,0.351c-0.636,0-1.23-0.117-1.782-0.351c-0.552-0.234-1.032-0.552-1.44-0.954
		c-0.408-0.402-0.729-0.876-0.963-1.422C164.861,201.856,164.745,201.271,164.745,200.647z M166.473,200.647
		c0,0.432,0.066,0.831,0.198,1.196c0.132,0.366,0.318,0.679,0.558,0.937c0.24,0.258,0.534,0.462,0.882,0.611
		c0.348,0.15,0.738,0.226,1.17,0.226c0.432,0,0.822-0.075,1.17-0.226c0.348-0.149,0.642-0.354,0.882-0.611
		c0.24-0.258,0.426-0.57,0.558-0.937c0.132-0.365,0.198-0.765,0.198-1.196c0-0.433-0.066-0.831-0.198-1.197
		c-0.132-0.366-0.318-0.678-0.558-0.937c-0.24-0.258-0.534-0.461-0.882-0.611c-0.348-0.15-0.738-0.226-1.17-0.226
		c-0.432,0-0.822,0.075-1.17,0.226s-0.642,0.354-0.882,0.611c-0.24,0.259-0.426,0.57-0.558,0.937S166.473,200.215,166.473,200.647z"
		/>
	<path fill="#FFFFFF" d="M175.886,197.425c0.456-0.42,0.984-0.734,1.584-0.944c0.6-0.21,1.2-0.315,1.8-0.315
		c0.624,0,1.161,0.078,1.611,0.234c0.45,0.156,0.819,0.366,1.107,0.63c0.288,0.264,0.501,0.566,0.639,0.909
		c0.138,0.342,0.207,0.699,0.207,1.07v4.356c0,0.3,0.006,0.576,0.018,0.828c0.012,0.252,0.03,0.492,0.054,0.72h-1.44
		c-0.036-0.432-0.054-0.864-0.054-1.296h-0.036c-0.36,0.552-0.786,0.942-1.278,1.17c-0.492,0.228-1.062,0.342-1.71,0.342
		c-0.396,0-0.774-0.054-1.134-0.162c-0.36-0.107-0.675-0.27-0.945-0.485c-0.27-0.217-0.483-0.483-0.639-0.802
		c-0.156-0.317-0.234-0.687-0.234-1.106c0-0.552,0.123-1.014,0.369-1.386c0.246-0.372,0.582-0.676,1.008-0.909
		c0.426-0.234,0.924-0.402,1.494-0.504c0.57-0.103,1.179-0.153,1.827-0.153h1.188v-0.36c0-0.216-0.042-0.432-0.126-0.647
		s-0.21-0.411-0.378-0.585s-0.378-0.312-0.63-0.414s-0.552-0.153-0.9-0.153c-0.312,0-0.585,0.03-0.819,0.09
		c-0.234,0.061-0.447,0.136-0.639,0.226c-0.192,0.09-0.366,0.195-0.522,0.314c-0.156,0.12-0.306,0.234-0.45,0.342L175.886,197.425z
		 M180.458,200.81c-0.384,0-0.777,0.021-1.179,0.062s-0.768,0.123-1.098,0.243c-0.331,0.12-0.601,0.288-0.81,0.504
		c-0.21,0.216-0.315,0.492-0.315,0.828c0,0.492,0.165,0.846,0.495,1.062s0.777,0.324,1.341,0.324c0.444,0,0.822-0.075,1.134-0.225
		c0.312-0.15,0.564-0.345,0.756-0.585s0.33-0.507,0.414-0.802c0.084-0.294,0.126-0.585,0.126-0.873v-0.539H180.458z"/>
	<path fill="#FFFFFF" d="M193.742,204.913h-1.62v-1.224h-0.036c-0.312,0.456-0.741,0.81-1.287,1.062
		c-0.546,0.252-1.107,0.378-1.683,0.378c-0.66,0-1.257-0.114-1.791-0.342c-0.534-0.228-0.99-0.546-1.368-0.954
		c-0.378-0.408-0.669-0.882-0.873-1.422c-0.205-0.54-0.306-1.128-0.306-1.764c0-0.637,0.102-1.228,0.306-1.773
		c0.204-0.546,0.495-1.02,0.873-1.422c0.378-0.402,0.834-0.717,1.368-0.945c0.534-0.228,1.131-0.342,1.791-0.342
		c0.612,0,1.188,0.129,1.728,0.387c0.54,0.259,0.954,0.609,1.242,1.054h0.036v-6.301h1.62V204.913z M189.314,203.617
		c0.432,0,0.822-0.075,1.17-0.226c0.348-0.149,0.642-0.354,0.882-0.611c0.24-0.258,0.426-0.57,0.558-0.937
		c0.132-0.365,0.198-0.765,0.198-1.196c0-0.433-0.066-0.831-0.198-1.197c-0.132-0.366-0.318-0.678-0.558-0.937
		c-0.24-0.258-0.534-0.461-0.882-0.611c-0.348-0.15-0.738-0.226-1.17-0.226c-0.432,0-0.822,0.075-1.17,0.226
		s-0.642,0.354-0.882,0.611c-0.24,0.259-0.426,0.57-0.558,0.937s-0.198,0.765-0.198,1.197c0,0.432,0.066,0.831,0.198,1.196
		c0.132,0.366,0.318,0.679,0.558,0.937c0.24,0.258,0.534,0.462,0.882,0.611C188.492,203.542,188.882,203.617,189.314,203.617z"/>
	<path fill="#FFFFFF" d="M201.824,197.785h-1.836v-1.404h1.836v-1.908c0-1.14,0.219-1.988,0.657-2.547
		c0.438-0.558,1.19-0.837,2.259-0.837c0.18,0,0.369,0.007,0.567,0.019c0.198,0.012,0.411,0.048,0.639,0.107l-0.18,1.44
		c-0.156-0.061-0.306-0.102-0.45-0.126s-0.3-0.036-0.468-0.036c-0.3,0-0.54,0.045-0.72,0.135c-0.18,0.09-0.321,0.22-0.423,0.387
		c-0.102,0.169-0.168,0.369-0.198,0.604c-0.03,0.234-0.045,0.501-0.045,0.801v1.962h1.926v1.404h-1.944v7.128h-1.62V197.785z"/>
	<path fill="#FFFFFF" d="M207.188,196.381h1.62v1.314h0.036c0.108-0.229,0.252-0.435,0.432-0.621s0.381-0.345,0.603-0.478
		c0.222-0.132,0.465-0.236,0.729-0.314c0.264-0.078,0.528-0.117,0.792-0.117c0.264,0,0.504,0.036,0.72,0.108l-0.072,1.746
		c-0.132-0.036-0.264-0.066-0.396-0.091c-0.132-0.023-0.264-0.035-0.396-0.035c-0.792,0-1.398,0.222-1.818,0.666
		c-0.42,0.443-0.63,1.134-0.63,2.069v4.284h-1.62V196.381z"/>
	<path fill="#FFFFFF" d="M213.11,200.647c0-0.624,0.117-1.206,0.351-1.746c0.234-0.54,0.555-1.015,0.963-1.422
		c0.408-0.408,0.888-0.729,1.44-0.964c0.552-0.233,1.146-0.351,1.782-0.351s1.229,0.117,1.782,0.351
		c0.552,0.234,1.031,0.556,1.439,0.964c0.408,0.407,0.729,0.882,0.963,1.422c0.234,0.54,0.352,1.122,0.352,1.746
		s-0.117,1.209-0.352,1.755c-0.233,0.546-0.555,1.02-0.963,1.422s-0.888,0.72-1.439,0.954c-0.553,0.233-1.146,0.351-1.782,0.351
		s-1.23-0.117-1.782-0.351c-0.552-0.234-1.032-0.552-1.44-0.954c-0.408-0.402-0.729-0.876-0.963-1.422
		C213.227,201.856,213.11,201.271,213.11,200.647z M214.838,200.647c0,0.432,0.066,0.831,0.198,1.196
		c0.132,0.366,0.318,0.679,0.559,0.937c0.239,0.258,0.533,0.462,0.882,0.611c0.348,0.15,0.738,0.226,1.17,0.226
		s0.822-0.075,1.17-0.226c0.348-0.149,0.642-0.354,0.882-0.611s0.426-0.57,0.559-0.937c0.132-0.365,0.197-0.765,0.197-1.196
		c0-0.433-0.065-0.831-0.197-1.197c-0.133-0.366-0.318-0.678-0.559-0.937c-0.24-0.258-0.534-0.461-0.882-0.611
		s-0.738-0.226-1.17-0.226s-0.822,0.075-1.17,0.226c-0.349,0.15-0.643,0.354-0.882,0.611c-0.241,0.259-0.427,0.57-0.559,0.937
		S214.838,200.215,214.838,200.647z"/>
	<path fill="#FFFFFF" d="M224.217,196.381h1.512v1.332h0.036c0.036-0.119,0.129-0.27,0.278-0.45c0.15-0.18,0.343-0.351,0.576-0.513
		c0.234-0.162,0.51-0.3,0.828-0.414c0.318-0.113,0.669-0.171,1.053-0.171c0.637,0,1.171,0.132,1.603,0.396
		c0.432,0.264,0.786,0.659,1.062,1.188c0.276-0.528,0.666-0.924,1.17-1.188c0.505-0.265,1.015-0.396,1.53-0.396
		c0.66,0,1.2,0.108,1.62,0.324s0.75,0.501,0.99,0.854c0.239,0.354,0.405,0.756,0.495,1.206s0.135,0.915,0.135,1.396v4.968h-1.62
		v-4.752c0-0.324-0.021-0.636-0.062-0.937c-0.043-0.3-0.13-0.563-0.262-0.792c-0.132-0.228-0.317-0.41-0.558-0.549
		c-0.24-0.138-0.559-0.207-0.954-0.207c-0.78,0-1.338,0.24-1.674,0.721c-0.336,0.479-0.504,1.098-0.504,1.854v4.662h-1.62v-4.464
		c0-0.408-0.021-0.78-0.063-1.116s-0.126-0.627-0.252-0.873s-0.306-0.438-0.54-0.576c-0.233-0.138-0.549-0.207-0.944-0.207
		c-0.288,0-0.567,0.058-0.837,0.171c-0.271,0.114-0.508,0.285-0.712,0.514c-0.204,0.228-0.365,0.519-0.485,0.873
		c-0.12,0.354-0.18,0.771-0.18,1.251v4.428h-1.62V196.381z"/>
	<path fill="#FFFFFF" d="M250.658,198.649c-0.3-0.312-0.615-0.55-0.945-0.711c-0.33-0.162-0.723-0.243-1.179-0.243
		c-0.444,0-0.831,0.081-1.161,0.243c-0.33,0.161-0.606,0.384-0.828,0.666c-0.223,0.281-0.391,0.605-0.504,0.972
		c-0.114,0.366-0.171,0.747-0.171,1.143c0,0.396,0.065,0.771,0.197,1.125c0.132,0.354,0.318,0.663,0.559,0.928
		c0.239,0.264,0.527,0.471,0.864,0.62c0.335,0.15,0.713,0.226,1.134,0.226c0.456,0,0.846-0.081,1.17-0.243s0.624-0.398,0.9-0.711
		l1.151,1.152c-0.42,0.468-0.908,0.804-1.467,1.008c-0.558,0.204-1.148,0.306-1.773,0.306c-0.66,0-1.263-0.107-1.809-0.324
		c-0.546-0.216-1.017-0.519-1.413-0.908c-0.396-0.391-0.702-0.858-0.918-1.404s-0.324-1.149-0.324-1.81
		c0-0.659,0.108-1.266,0.324-1.817s0.519-1.026,0.909-1.422c0.39-0.396,0.857-0.705,1.403-0.928
		c0.546-0.222,1.155-0.333,1.827-0.333c0.625,0,1.222,0.111,1.792,0.333c0.569,0.223,1.064,0.562,1.484,1.018L250.658,198.649z"/>
	<path fill="#FFFFFF" d="M252.817,200.647c0-0.624,0.117-1.206,0.352-1.746c0.233-0.54,0.555-1.015,0.963-1.422
		c0.408-0.408,0.888-0.729,1.44-0.964c0.552-0.233,1.146-0.351,1.781-0.351s1.23,0.117,1.782,0.351
		c0.552,0.234,1.032,0.556,1.44,0.964c0.407,0.407,0.729,0.882,0.963,1.422c0.233,0.54,0.351,1.122,0.351,1.746
		s-0.117,1.209-0.351,1.755c-0.234,0.546-0.556,1.02-0.963,1.422c-0.408,0.402-0.889,0.72-1.44,0.954
		c-0.552,0.233-1.146,0.351-1.782,0.351s-1.229-0.117-1.781-0.351c-0.553-0.234-1.032-0.552-1.44-0.954s-0.729-0.876-0.963-1.422
		C252.935,201.856,252.817,201.271,252.817,200.647z M254.546,200.647c0,0.432,0.065,0.831,0.198,1.196
		c0.132,0.366,0.317,0.679,0.558,0.937s0.534,0.462,0.882,0.611c0.348,0.15,0.738,0.226,1.17,0.226c0.433,0,0.822-0.075,1.17-0.226
		c0.349-0.149,0.643-0.354,0.883-0.611c0.239-0.258,0.426-0.57,0.558-0.937c0.132-0.365,0.198-0.765,0.198-1.196
		c0-0.433-0.066-0.831-0.198-1.197s-0.318-0.678-0.558-0.937c-0.24-0.258-0.534-0.461-0.883-0.611
		c-0.348-0.15-0.737-0.226-1.17-0.226c-0.432,0-0.822,0.075-1.17,0.226s-0.642,0.354-0.882,0.611
		c-0.24,0.259-0.426,0.57-0.558,0.937C254.611,199.816,254.546,200.215,254.546,200.647z"/>
	<path fill="#FFFFFF" d="M263.924,196.381h1.513v1.332h0.036c0.035-0.119,0.128-0.27,0.278-0.45c0.15-0.18,0.342-0.351,0.576-0.513
		s0.51-0.3,0.828-0.414c0.317-0.113,0.669-0.171,1.053-0.171c0.636,0,1.17,0.132,1.603,0.396c0.432,0.264,0.785,0.659,1.062,1.188
		c0.276-0.528,0.666-0.924,1.17-1.188c0.504-0.265,1.014-0.396,1.53-0.396c0.66,0,1.2,0.108,1.62,0.324s0.75,0.501,0.99,0.854
		c0.239,0.354,0.404,0.756,0.494,1.206c0.091,0.45,0.136,0.915,0.136,1.396v4.968h-1.62v-4.752c0-0.324-0.021-0.636-0.063-0.937
		c-0.042-0.3-0.129-0.563-0.261-0.792c-0.132-0.228-0.318-0.41-0.558-0.549c-0.24-0.138-0.559-0.207-0.954-0.207
		c-0.78,0-1.339,0.24-1.674,0.721c-0.337,0.479-0.505,1.098-0.505,1.854v4.662h-1.619v-4.464c0-0.408-0.021-0.78-0.063-1.116
		s-0.126-0.627-0.252-0.873s-0.306-0.438-0.54-0.576c-0.234-0.138-0.549-0.207-0.945-0.207c-0.288,0-0.566,0.058-0.837,0.171
		c-0.27,0.114-0.507,0.285-0.711,0.514c-0.204,0.228-0.366,0.519-0.485,0.873c-0.12,0.354-0.181,0.771-0.181,1.251v4.428h-1.62
		V196.381z"/>
	<path fill="#FFFFFF" d="M279.26,196.381h1.62v1.225h0.036c0.312-0.456,0.741-0.811,1.287-1.062s1.107-0.378,1.683-0.378
		c0.66,0,1.257,0.114,1.791,0.342c0.534,0.229,0.99,0.547,1.368,0.954c0.378,0.408,0.669,0.885,0.873,1.431
		c0.204,0.547,0.307,1.132,0.307,1.756c0,0.636-0.103,1.227-0.307,1.772s-0.495,1.021-0.873,1.422
		c-0.378,0.402-0.834,0.718-1.368,0.945s-1.131,0.342-1.791,0.342c-0.611,0-1.188-0.129-1.728-0.387s-0.954-0.609-1.242-1.053
		h-0.036v6.3h-1.62V196.381z M283.688,197.677c-0.433,0-0.822,0.075-1.17,0.226c-0.349,0.15-0.643,0.354-0.883,0.611
		c-0.24,0.259-0.426,0.57-0.558,0.937s-0.198,0.765-0.198,1.197c0,0.432,0.066,0.831,0.198,1.196
		c0.132,0.366,0.317,0.679,0.558,0.937s0.534,0.462,0.883,0.611c0.348,0.15,0.737,0.226,1.17,0.226c0.432,0,0.821-0.075,1.17-0.226
		c0.348-0.149,0.642-0.354,0.882-0.611s0.426-0.57,0.558-0.937c0.132-0.365,0.198-0.765,0.198-1.196
		c0-0.433-0.066-0.831-0.198-1.197s-0.317-0.678-0.558-0.937c-0.24-0.258-0.534-0.461-0.882-0.611
		C284.51,197.752,284.12,197.677,283.688,197.677z"/>
	<path fill="#FFFFFF" d="M297.818,204.913h-1.62v-1.314h-0.036c-0.204,0.457-0.558,0.825-1.062,1.107
		c-0.505,0.282-1.087,0.423-1.746,0.423c-0.421,0-0.816-0.062-1.188-0.188s-0.699-0.321-0.98-0.585
		c-0.282-0.265-0.508-0.604-0.676-1.018s-0.252-0.902-0.252-1.467v-5.49h1.62v5.04c0,0.396,0.055,0.735,0.162,1.018
		c0.108,0.281,0.252,0.51,0.433,0.684c0.18,0.174,0.387,0.3,0.62,0.378c0.234,0.078,0.478,0.117,0.729,0.117
		c0.336,0,0.647-0.054,0.936-0.162s0.54-0.279,0.757-0.513c0.216-0.234,0.384-0.531,0.504-0.892c0.119-0.359,0.18-0.785,0.18-1.277
		v-4.393h1.62V204.913z"/>
	<path fill="#FFFFFF" d="M304.838,197.785h-2.322v3.87c0,0.24,0.006,0.477,0.019,0.711c0.012,0.233,0.057,0.444,0.135,0.63
		c0.078,0.187,0.198,0.336,0.36,0.45s0.398,0.171,0.711,0.171c0.191,0,0.39-0.019,0.594-0.054c0.204-0.036,0.39-0.103,0.558-0.198
		v1.476c-0.191,0.108-0.44,0.183-0.747,0.226c-0.306,0.042-0.543,0.062-0.711,0.062c-0.624,0-1.106-0.087-1.448-0.261
		c-0.343-0.174-0.595-0.398-0.757-0.675c-0.161-0.276-0.258-0.585-0.287-0.928c-0.03-0.342-0.046-0.687-0.046-1.034v-4.446h-1.871
		v-1.404h1.871v-2.394h1.62v2.394h2.322V197.785z"/>
	<path fill="#FFFFFF" d="M308.149,201.241c0,0.372,0.081,0.711,0.243,1.017c0.161,0.307,0.374,0.567,0.639,0.783
		c0.264,0.216,0.569,0.384,0.918,0.504c0.348,0.12,0.708,0.18,1.08,0.18c0.504,0,0.941-0.116,1.313-0.351s0.714-0.543,1.026-0.927
		l1.224,0.936c-0.899,1.164-2.159,1.746-3.779,1.746c-0.673,0-1.281-0.114-1.827-0.342s-1.008-0.543-1.386-0.945
		c-0.378-0.401-0.67-0.876-0.873-1.422c-0.204-0.546-0.307-1.137-0.307-1.772c0-0.637,0.111-1.228,0.333-1.773
		c0.223-0.546,0.528-1.02,0.918-1.422s0.855-0.717,1.396-0.945c0.54-0.228,1.128-0.342,1.764-0.342c0.756,0,1.396,0.132,1.917,0.396
		c0.522,0.264,0.951,0.608,1.287,1.034c0.336,0.427,0.579,0.906,0.729,1.44c0.149,0.534,0.225,1.077,0.225,1.629v0.576H308.149z
		 M313.261,199.945c-0.012-0.36-0.068-0.69-0.171-0.99c-0.102-0.3-0.255-0.561-0.459-0.783c-0.204-0.222-0.459-0.396-0.765-0.521
		s-0.663-0.189-1.071-0.189c-0.396,0-0.759,0.075-1.089,0.226c-0.33,0.149-0.609,0.345-0.837,0.585
		c-0.229,0.24-0.405,0.507-0.531,0.801s-0.188,0.585-0.188,0.873H313.261z"/>
	<path fill="#FFFFFF" d="M316.934,196.381h1.62v1.314h0.036c0.108-0.229,0.252-0.435,0.432-0.621
		c0.181-0.187,0.381-0.345,0.604-0.478c0.222-0.132,0.465-0.236,0.729-0.314c0.265-0.078,0.528-0.117,0.792-0.117
		c0.265,0,0.505,0.036,0.721,0.108l-0.072,1.746c-0.132-0.036-0.264-0.066-0.396-0.091c-0.133-0.023-0.265-0.035-0.396-0.035
		c-0.792,0-1.398,0.222-1.818,0.666c-0.42,0.443-0.63,1.134-0.63,2.069v4.284h-1.62V196.381z"/>
</g>
</svg>
