<?xml version="1.0" encoding="iso-8859-1"?>
<!-- Generator: Adobe Illustrator 16.0.0, SVG Export Plug-In . SVG Version: 6.00 Build 0)  -->
<!DOCTYPE svg PUBLIC "-//W3C//DTD SVG 1.1//EN" "http://www.w3.org/Graphics/SVG/1.1/DTD/svg11.dtd">
<svg version="1.1" xmlns="http://www.w3.org/2000/svg" xmlns:xlink="http://www.w3.org/1999/xlink" x="0px" y="0px"
	 width="283.46px" height="283.46px" viewBox="0 0 283.46 283.46" style="enable-background:new 0 0 283.46 283.46;"
	 xml:space="preserve">
<g id="youtube">
	<path style="fill:#E34335;" d="M169.594,216.838c0,6.098-1.837,9.046-5.35,9.046c-2.039,0-4.059-0.93-6.077-2.948v-41.349
		c2.019-2.019,4.038-2.947,6.077-2.947c3.513,0,5.35,3.149,5.35,9.246V216.838z M203.554,194.327v-6.279
		c0-6.259,2.039-9.408,6.097-9.408c4.059,0,6.077,3.149,6.077,9.408v6.279H203.554z M98.183,145.245H55.36v12.922h14.396v78.054
		h13.668v-78.054h14.759V145.245z M135.271,168.504h-12.356v51.666c-2.786,3.855-5.168,5.714-7.753,5.714
		c-1.656,0-2.584-0.93-2.766-2.767c-0.182-0.363-0.182-2.019-0.182-4.785v-49.828H100.02v53.503c0,4.806,0.364,7.955,1.111,9.974
		c1.11,3.514,3.876,5.169,7.752,5.169c4.624,0,9.227-2.786,14.032-8.318v7.39h12.356V168.504z M181.769,188.977
		c0-6.461-0.363-10.883-1.271-13.648c-1.494-5.169-4.806-7.753-9.792-7.753c-4.422,0-8.682,2.584-12.538,7.369v-29.699H145.79
		v90.976h12.377v-6.643c4.038,4.986,8.298,7.571,12.538,7.571c4.986,0,8.298-2.585,9.792-7.753c0.908-2.767,1.271-7.39,1.271-13.467
		V188.977z M228.104,212.78h-12.559c0,4.805-0.182,7.571-0.182,8.318c-0.747,3.129-2.584,4.785-5.532,4.785
		c-4.239,0-6.278-3.13-6.278-9.409v-11.992h24.551V190.45c0-7.188-1.292-12.356-3.877-15.869c-3.331-4.623-8.318-7.006-14.396-7.006
		c-6.278,0-11.266,2.383-14.759,7.006c-2.584,3.513-3.694,8.682-3.694,15.869v23.804c0,7.208,1.292,12.559,3.877,15.869
		c3.492,4.624,8.479,7.026,14.94,7.026c6.278,0,11.447-2.402,14.758-7.39c1.494-2.221,2.403-4.604,2.787-7.369
		c0.182-1.292,0.363-3.896,0.363-7.935V212.78z M144.861,60.71c0-6.279-2.019-9.59-5.895-9.59c-4.058,0-5.916,3.311-5.916,9.59
		v28.791c0,6.279,1.857,9.408,5.916,9.408c3.876,0,5.895-3.129,5.895-9.408V60.71z M243.227,192.287c0,15.708,0,32.506-3.695,47.991
		c-2.382,10.721-11.245,18.636-21.765,19.928c-25.277,2.766-50.757,2.766-76.034,2.766c-25.278,0-50.757,0-76.035-2.766
		c-10.519-1.292-19.382-9.207-21.785-19.928c-3.674-15.485-3.674-32.283-3.674-47.991l0,0c0-15.869,0.182-32.667,3.674-47.971
		c2.403-10.882,11.266-18.817,21.967-19.927c25.096-2.766,50.575-2.766,75.853-2.766c25.459,0,50.938,0,76.034,2.766
		c10.52,1.11,19.383,9.045,21.967,19.927C243.227,159.62,243.227,176.418,243.227,192.287L243.227,192.287z M103.896,72.158v37.089
		H90.249V72.158c-1.292-6.643-4.058-16.232-8.5-29.154c-2.766-8.5-5.896-16.98-8.662-25.47h14.396l9.772,35.988l9.408-35.988h13.85
		L103.896,72.158z M157.238,87.099c0,7.208-1.292,12.74-3.877,16.071c-3.513,4.603-8.318,7.006-14.395,7.006
		c-6.279,0-11.084-2.403-14.396-7.006c-2.584-3.513-3.876-8.863-3.876-16.071V63.113c0-7.188,1.292-12.538,3.876-16.051
		c3.312-4.624,8.117-7.006,14.396-7.006c6.077,0,10.882,2.382,14.395,7.006c2.585,3.513,3.877,8.863,3.877,16.051V87.099z
		 M190.632,109.247v-7.37c-4.986,5.532-9.59,8.298-14.214,8.298c-3.876,0-6.642-1.656-7.935-4.987
		c-0.727-2.221-1.11-5.351-1.11-10.135V40.965h12.377v50.212c0,2.948,0,4.421,0.182,4.785c0.182,2.039,1.292,2.948,2.947,2.948
		c2.402,0,4.987-1.837,7.753-5.713V40.965h12.376v68.282H190.632z M283.465,53.14c0-29.336-23.804-53.14-53.14-53.14H53.14
		C23.804,0,0,23.804,0,53.14v177.186c0,29.336,23.804,53.14,53.14,53.14h177.186c29.336,0,53.14-23.804,53.14-53.14V53.14z"/>
</g>
<g id="Layer_1">
</g>
</svg>
