<?xml version="1.0" encoding="utf-8"?>
<!-- Generator: Adobe Illustrator 17.0.0, SVG Export Plug-In . SVG Version: 6.00 Build 0)  -->
<!DOCTYPE svg PUBLIC "-//W3C//DTD SVG 1.1//EN" "http://www.w3.org/Graphics/SVG/1.1/DTD/svg11.dtd">
<svg version="1.1" id="Layer_1" xmlns="http://www.w3.org/2000/svg" xmlns:xlink="http://www.w3.org/1999/xlink" x="0px" y="0px"
	 width="283.46px" height="283.46px" viewBox="0 0 283.46 283.46" enable-background="new 0 0 283.46 283.46" xml:space="preserve">
<g id="XMLID_13_">
	
		<linearGradient id="XMLID_2_" gradientUnits="userSpaceOnUse" x1="2445.1885" y1="4039.1121" x2="2445.1885" y2="1838.4242" gradientTransform="matrix(0.127 0 0 0.127 -168.8918 -230.9075)">
		<stop  offset="0" style="stop-color:#E09B3D"/>
		<stop  offset="0.3" style="stop-color:#C74C4D"/>
		<stop  offset="0.6" style="stop-color:#C21975"/>
		<stop  offset="1" style="stop-color:#7024C4"/>
	</linearGradient>
	<path id="XMLID_17_" fill="url(#XMLID_2_)" d="M198.838,0.44H84.622C38.204,0.44,0.44,38.204,0.44,84.622v114.216
		c0,46.418,37.764,84.182,84.182,84.182h114.216c46.418,0,84.182-37.764,84.182-84.182V84.622
		C283.02,38.204,245.256,0.44,198.838,0.44z M254.592,198.838c0,30.792-24.962,55.755-55.755,55.755H84.622
		c-30.792,0-55.755-24.962-55.755-55.755V84.622c0-30.793,24.962-55.755,55.755-55.755h114.216
		c30.792,0,55.755,24.962,55.755,55.755L254.592,198.838L254.592,198.838z"/>
	
		<linearGradient id="XMLID_3_" gradientUnits="userSpaceOnUse" x1="2445.1885" y1="4039.1121" x2="2445.1885" y2="1838.4242" gradientTransform="matrix(0.127 0 0 0.127 -168.8918 -230.9075)">
		<stop  offset="0" style="stop-color:#E09B3D"/>
		<stop  offset="0.3" style="stop-color:#C74C4D"/>
		<stop  offset="0.6" style="stop-color:#C21975"/>
		<stop  offset="1" style="stop-color:#7024C4"/>
	</linearGradient>
	<path id="XMLID_81_" fill="url(#XMLID_3_)" d="M141.73,68.645c-40.299,0-73.085,32.786-73.085,73.085s32.786,73.085,73.085,73.085
		s73.085-32.786,73.085-73.085S182.029,68.645,141.73,68.645z M141.73,186.388c-24.664,0-44.658-19.994-44.658-44.658
		s19.994-44.658,44.658-44.658c24.664,0,44.658,19.994,44.658,44.658C186.388,166.393,166.393,186.388,141.73,186.388z"/>
	
		<linearGradient id="XMLID_4_" gradientUnits="userSpaceOnUse" x1="3021.6074" y1="4039.1121" x2="3021.6074" y2="1838.4242" gradientTransform="matrix(0.127 0 0 0.127 -168.8918 -230.9075)">
		<stop  offset="0" style="stop-color:#E09B3D"/>
		<stop  offset="0.3" style="stop-color:#C74C4D"/>
		<stop  offset="0.6" style="stop-color:#C21975"/>
		<stop  offset="1" style="stop-color:#7024C4"/>
	</linearGradient>
	<circle id="XMLID_83_" fill="url(#XMLID_4_)" cx="214.955" cy="69.194" r="17.512"/>
</g>
</svg>
