<?xml version="1.0" encoding="utf-8"?>
<!-- Generator: Adobe Illustrator 17.0.0, SVG Export Plug-In . SVG Version: 6.00 Build 0)  -->
<!DOCTYPE svg PUBLIC "-//W3C//DTD SVG 1.1//EN" "http://www.w3.org/Graphics/SVG/1.1/DTD/svg11.dtd">
<svg version="1.1" id="Layer_1" xmlns="http://www.w3.org/2000/svg" xmlns:xlink="http://www.w3.org/1999/xlink" x="0px" y="0px"
	 width="283.46px" height="283.46px" viewBox="0 0 283.46 283.46" enable-background="new 0 0 283.46 283.46" xml:space="preserve">
<g>
	<path fill="#3FA9F5" d="M21.587,112.182c-0.722,0.444-1.443,0.499-2.22,0.499c-0.444,0.167-0.943,0.333-1.499,0.333
		c-4.662,0.167-7.659-4.606-10.267-7.881s-5.384-6.383-5.772-10.712c0-0.111,0.056-0.222,0.111-0.333
		c-0.333-1.166-0.277-2.387,0.222-3.553c16.595-36.132,60.719-59.498,98.849-62.495c0.166,0,0.333,0,0.499,0
		c1.831,0,3.219,0.833,4.218,0.833c8.825,5.55,12.044,19.98,14.819,28.084c6.327,18.704,10.323,39.407,14.652,58.666
		c4.44,20.036,10.879,70.432,39.906,37.464c7.438-8.437,12.544-20.369,16.317-32.413c-1.276-6.604-0.166-13.099-6.216-18.649
		c-6.604-6.105-13.876-9.103-22.867-8.104c-1.499,0.166-2.498-0.666-2.941-1.832c-2.331-1.776-3.607-4.939-1.665-8.215
		c19.759-33.412,67.102-83.475,107.286-45.124c41.848,40.017-5.217,110.894-29.027,146.415
		c-25.531,38.075-81.7,91.912-133.094,67.046c-17.649-8.548-23.755-27.918-28.307-45.623c-8.048-31.248-15.43-62.662-23.422-93.965
		c-0.111-0.222-0.277-0.389-0.444-0.61c-1.166-2.22-1.554-5.106-3.274-6.937c-2.553-2.775-6.438-2.498-9.713-1.721
		C31.799,104.856,26.804,109.241,21.587,112.182z"/>
</g>
</svg>
