<?xml version="1.0" encoding="iso-8859-1"?>
<!-- Generator: Adobe Illustrator 16.0.0, SVG Export Plug-In . SVG Version: 6.00 Build 0)  -->
<!DOCTYPE svg PUBLIC "-//W3C//DTD SVG 1.1//EN" "http://www.w3.org/Graphics/SVG/1.1/DTD/svg11.dtd">
<svg version="1.1" xmlns="http://www.w3.org/2000/svg" xmlns:xlink="http://www.w3.org/1999/xlink" x="0px" y="0px"
	 width="283.46px" height="283.46px" viewBox="0 0 283.46 283.46" style="enable-background:new 0 0 283.46 283.46;"
	 xml:space="preserve">
<g id="facebook">
	<path style="fill:#3D5C95;" d="M230.315,0H53.149C23.812,0,0,23.812,0,53.149v177.166c0,29.337,23.812,53.149,53.149,53.149h98.172
		V173.672h-36.895v-42.839h36.895v-31.54c0-36.554,22.521-56.473,55.182-56.473c15.514,0,28.977,1.101,32.851,1.652v38.206
		l-22.502,0.19c-17.906,0-21.229,8.298-21.229,20.66v27.306h42.27l-5.545,42.839h-36.725v109.793h34.693
		c29.337,0,53.149-23.812,53.149-53.149V53.149C283.465,23.812,259.652,0,230.315,0z"/>
</g>
<g id="Layer_1">
</g>
</svg>
