<?xml version="1.0" encoding="iso-8859-1"?>
<!-- Generator: Adobe Illustrator 16.0.0, SVG Export Plug-In . SVG Version: 6.00 Build 0)  -->
<!DOCTYPE svg PUBLIC "-//W3C//DTD SVG 1.1//EN" "http://www.w3.org/Graphics/SVG/1.1/DTD/svg11.dtd">
<svg version="1.1" xmlns="http://www.w3.org/2000/svg" xmlns:xlink="http://www.w3.org/1999/xlink" x="0px" y="0px"
	 width="283.46px" height="270.337px" viewBox="0 0 283.46 270.337" style="enable-background:new 0 0 283.46 270.337;"
	 xml:space="preserve">
<g id="star">
	<path style="fill:#FECE11;" d="M283.467,104.766c0-5.118-5.452-7.151-9.537-7.835l-85.52-12.428L150.075,6.985
		C148.551,3.751,145.659,0,141.732,0c-3.926,0-6.818,3.751-8.343,6.985L95.055,84.503L9.535,96.931C5.276,97.615,0,99.648,0,104.766
		c0,3.067,2.208,5.959,4.259,8.167l62.015,60.315l-14.654,85.168c-0.175,1.191-0.351,2.227-0.351,3.418
		c0,4.436,2.226,8.502,7.168,8.502c2.384,0,4.593-0.842,6.802-2.033l76.492-40.21l76.492,40.21c2.033,1.191,4.418,2.033,6.801,2.033
		c4.943,0,6.994-4.066,6.994-8.502c0-1.191,0-2.227-0.174-3.418l-14.654-85.168l61.839-60.315
		C281.257,110.726,283.467,107.833,283.467,104.766z"/>
</g>
<g id="Layer_1">
</g>
</svg>
