<?xml version="1.0" encoding="iso-8859-1"?>
<!-- Generator: Adobe Illustrator 16.0.0, SVG Export Plug-In . SVG Version: 6.00 Build 0)  -->
<!DOCTYPE svg PUBLIC "-//W3C//DTD SVG 1.1//EN" "http://www.w3.org/Graphics/SVG/1.1/DTD/svg11.dtd">
<svg version="1.1" xmlns="http://www.w3.org/2000/svg" xmlns:xlink="http://www.w3.org/1999/xlink" x="0px" y="0px"
	 width="283.46px" height="230.364px" viewBox="0 0 283.46 230.364" style="enable-background:new 0 0 283.46 230.364;"
	 xml:space="preserve">
<g id="twitter">
	<path style="fill:#5CC7E6;" d="M283.465,27.265c-10.424,4.63-21.635,7.754-33.401,9.159c12.009-7.192,21.229-18.588,25.568-32.176
		c-11.239,6.665-23.68,11.508-36.93,14.116C228.099,7.058,212.982,0,196.254,0c-32.113,0-58.153,26.04-58.153,58.153
		c0,4.557,0.514,8.997,1.506,13.25C91.273,68.981,48.418,45.831,19.735,10.643c-5.004,8.586-7.873,18.577-7.873,29.237
		c0,20.179,10.266,37.975,25.871,48.41c-9.53-0.309-18.501-2.922-26.34-7.282c-0.006,0.247-0.006,0.489-0.006,0.742
		c0,28.169,20.047,51.674,46.654,57.024c-4.88,1.326-10.019,2.033-15.324,2.033c-3.751,0-7.392-0.359-10.943-1.045
		c7.403,23.105,28.88,39.92,54.324,40.391c-19.903,15.6-44.976,24.895-72.227,24.895c-4.692,0-9.319-0.275-13.871-0.811
		c25.742,16.504,56.308,26.129,89.149,26.129c106.97,0,165.466-88.614,165.466-165.468c0-2.518-0.056-5.029-0.168-7.524
		C265.809,49.174,275.677,38.93,283.465,27.265z"/>
</g>
<g id="Layer_1">
</g>
</svg>
