<?xml version="1.0" encoding="iso-8859-1"?>
<!-- Generator: Adobe Illustrator 16.0.0, SVG Export Plug-In . SVG Version: 6.00 Build 0)  -->
<!DOCTYPE svg PUBLIC "-//W3C//DTD SVG 1.1//EN" "http://www.w3.org/Graphics/SVG/1.1/DTD/svg11.dtd">
<svg version="1.1" xmlns="http://www.w3.org/2000/svg" xmlns:xlink="http://www.w3.org/1999/xlink" x="0px" y="0px"
	 width="283.46px" height="283.46px" viewBox="0 0 283.46 283.46" style="enable-background:new 0 0 283.46 283.46;"
	 xml:space="preserve">
<g id="linkedin">
	<path style="fill:#334776;" d="M267.869,15.593C257.477,5.198,244.956,0,230.317,0H53.149C38.51,0,25.99,5.198,15.593,15.593
		C5.198,25.99,0,38.509,0,53.149v177.167c0,14.639,5.198,27.16,15.593,37.557c10.396,10.396,22.917,15.596,37.556,15.596h177.167
		c14.639,0,27.159-5.199,37.552-15.596c10.397-10.396,15.597-22.918,15.597-37.557V53.149
		C283.463,38.509,278.265,25.988,267.869,15.593z M86.368,237.327H43.737V109.251h42.631V237.327L86.368,237.327z M82.495,85.538
		c-4.429,4.245-10.273,6.368-17.533,6.368h-0.186c-7.012,0-12.701-2.123-17.069-6.368c-4.37-4.245-6.553-9.503-6.553-15.778
		c0-6.398,2.247-11.689,6.736-15.874c4.492-4.182,10.305-6.274,17.439-6.274c7.136,0,12.857,2.092,17.165,6.274
		c4.305,4.185,6.52,9.476,6.642,15.874C89.134,76.032,86.922,81.291,82.495,85.538z M239.727,237.327h-42.63v-68.466
		c0-19.312-7.135-28.972-21.406-28.972c-5.413,0-9.967,1.507-13.656,4.521c-3.694,3.014-6.462,6.674-8.304,10.982
		c-0.863,2.213-1.293,5.656-1.293,10.332v71.601h-42.631c0.369-77.261,0.369-119.955,0-128.076h42.631v18.082
		c8.964-14.014,21.691-21.035,38.201-21.035c14.765,0,26.639,4.861,35.619,14.578c8.981,9.721,13.472,24.056,13.472,42.999v73.454
		H239.727L239.727,237.327z"/>
</g>
<g id="Layer_1">
</g>
</svg>
