<?xml version="1.0" encoding="iso-8859-1"?>
<!-- Generator: Adobe Illustrator 16.0.0, SVG Export Plug-In . SVG Version: 6.00 Build 0)  -->
<!DOCTYPE svg PUBLIC "-//W3C//DTD SVG 1.1//EN" "http://www.w3.org/Graphics/SVG/1.1/DTD/svg11.dtd">
<svg version="1.1" xmlns="http://www.w3.org/2000/svg" xmlns:xlink="http://www.w3.org/1999/xlink" x="0px" y="0px"
	 width="283.46px" height="267.709px" viewBox="0 0 283.46 267.709" style="enable-background:new 0 0 283.46 267.709;"
	 xml:space="preserve">
<g id="ad">
	<polygon style="fill-rule:evenodd;clip-rule:evenodd;fill:#FECE11;" points="76.864,146.461 103.193,146.461 90.09,112.197 	"/>
	<path style="fill-rule:evenodd;clip-rule:evenodd;fill:#FECE11;" d="M186.793,108.167h-16.194v54.688h17.04
		c13.933,0,24.176-11.104,24.176-27.221C211.814,119.378,201.095,108.167,186.793,108.167z"/>
	<path style="fill-rule:evenodd;clip-rule:evenodd;fill:#FECE11;" d="M220.473,0H62.992C28.205,0,0,28.197,0,62.984v141.733
		c0,34.803,28.205,62.992,62.992,62.992h157.48c34.787,0,62.992-28.189,62.992-62.992V62.984C283.465,28.197,255.26,0,220.473,0z
		 M115.819,179.603l-6.551-17.132H70.682l-6.551,17.132H44.707l36.217-88.183h19.408l35.618,88.183H115.819z M186.438,179.603
		H151.79V91.419h35.372c25.836,0,43.829,18.009,43.829,44.092C230.991,161.471,212.768,179.603,186.438,179.603z"/>
</g>
<g id="Layer_1">
</g>
</svg>
