<?xml version="1.0" encoding="utf-8"?>
<!-- Generator: Adobe Illustrator 16.0.0, SVG Export Plug-In . SVG Version: 6.00 Build 0)  -->
<!DOCTYPE svg PUBLIC "-//W3C//DTD SVG 1.1//EN" "http://www.w3.org/Graphics/SVG/1.1/DTD/svg11.dtd">
<svg version="1.1" id="Capa_1" xmlns="http://www.w3.org/2000/svg" xmlns:xlink="http://www.w3.org/1999/xlink" x="0px" y="0px"
	 width="512px" height="512px" viewBox="0 0 512 512" enable-background="new 0 0 512 512" xml:space="preserve">
<g>
	<path fill="#29CCA1" d="M79.04,480.135c-2.361,0-4.724-0.936-6.532-2.788c-3.598-3.723-3.598-9.777,0-13.501L485.267,36.648
		c3.599-3.724,9.448-3.724,13.047,0c3.597,3.724,3.597,9.778,0,13.502L85.571,477.327C83.764,479.199,81.402,480.135,79.04,480.135z
		"/>
	<path fill="#29CCA1" d="M491.764,391.502L491.764,391.502c-5.093,0-9.227-4.277-9.227-9.548l0.037-328.997H164.658
		c-5.092,0-9.226-4.279-9.226-9.549c0-5.271,4.134-9.549,9.226-9.549h327.141c2.455,0,4.8,1.012,6.533,2.788
		c1.734,1.777,2.693,4.222,2.693,6.762l-0.036,338.546C500.989,387.225,496.856,391.502,491.764,391.502z"/>
	<path fill="#29CCA1" d="M100.825,447.643c-2.127,0-4.256-0.844-5.886-2.514c-3.243-3.354-3.243-8.811,0-12.167L466.897,47.995
		c3.242-3.356,8.513-3.356,11.756,0c3.242,3.355,3.242,8.811,0,12.167L106.711,445.113
		C105.082,446.799,102.953,447.643,100.825,447.643z"/>
	<path fill="#29CCA1" d="M491.623,396.732L491.623,396.732c-5.18,0-9.384-4.341-9.384-9.689l0.037-333.823H158.92
		c-5.18,0-9.383-4.341-9.383-9.689c0-5.349,4.204-9.689,9.383-9.689h332.742c2.495,0,4.879,1.027,6.642,2.829
		c1.765,1.803,2.741,4.284,2.741,6.862l-0.037,343.513C501.008,392.392,496.804,396.732,491.623,396.732z"/>
</g>
<rect x="111.941" y="32.02" fill="#4B4C4C" width="389.537" height="41.837"/>
<rect x="454.5" y="43.571" fill="#4B4C4C" width="46.522" height="384.022"/>
<polygon fill="#4B4C4C" points="471.758,33.841 501.478,63.394 79.936,490.544 50.216,460.991 "/>
</svg>
