<?xml version="1.0" encoding="iso-8859-1"?>
<!-- Generator: Adobe Illustrator 16.0.0, SVG Export Plug-In . SVG Version: 6.00 Build 0)  -->
<!DOCTYPE svg PUBLIC "-//W3C//DTD SVG 1.1//EN" "http://www.w3.org/Graphics/SVG/1.1/DTD/svg11.dtd">
<svg version="1.1" xmlns="http://www.w3.org/2000/svg" xmlns:xlink="http://www.w3.org/1999/xlink" x="0px" y="0px"
	 width="283.46px" height="222.721px" viewBox="0 0 283.46 222.721" style="enable-background:new 0 0 283.46 222.721;"
	 xml:space="preserve">
<g id="grid">
	<path style="fill:#4C4B4C;" d="M80.989,177.157c0-8.379-6.799-15.179-15.178-15.179H15.192C6.8,161.979,0,168.778,0,177.157v30.386
		c0,8.378,6.8,15.178,15.192,15.178h50.619c8.379,0,15.178-6.8,15.178-15.178V177.157z M80.989,96.168
		c0-8.379-6.799-15.18-15.178-15.18H15.192C6.8,80.989,0,87.79,0,96.168v30.384c0,8.379,6.8,15.179,15.192,15.179h50.619
		c8.379,0,15.178-6.8,15.178-15.179V96.168z M182.227,177.157c0-8.379-6.799-15.179-15.178-15.179h-50.62
		c-8.393,0-15.192,6.8-15.192,15.179v30.386c0,8.378,6.8,15.178,15.192,15.178h50.62c8.379,0,15.178-6.8,15.178-15.178V177.157z
		 M80.989,15.178C80.989,6.799,74.19,0,65.811,0H15.192C6.8,0,0,6.799,0,15.178v30.385c0,8.379,6.8,15.179,15.192,15.179h50.619
		c8.379,0,15.178-6.8,15.178-15.179V15.178z M182.227,96.168c0-8.379-6.799-15.18-15.178-15.18h-50.62
		c-8.393,0-15.192,6.801-15.192,15.18v30.384c0,8.379,6.8,15.179,15.192,15.179h50.62c8.379,0,15.178-6.8,15.178-15.179V96.168z
		 M283.465,177.157c0-8.379-6.801-15.179-15.18-15.179h-50.619c-8.393,0-15.191,6.8-15.191,15.179v30.386
		c0,8.378,6.799,15.178,15.191,15.178h50.619c8.379,0,15.18-6.8,15.18-15.178V177.157z M182.227,15.178
		C182.227,6.799,175.428,0,167.049,0h-50.62c-8.393,0-15.192,6.8-15.192,15.179v30.385c0,8.379,6.8,15.179,15.192,15.179h50.62
		c8.379,0,15.178-6.8,15.178-15.179V15.178z M283.465,96.168c0-8.379-6.801-15.18-15.18-15.18h-50.619
		c-8.393,0-15.191,6.801-15.191,15.18v30.384c0,8.379,6.799,15.179,15.191,15.179h50.619c8.379,0,15.18-6.8,15.18-15.179V96.168z
		 M283.465,15.178c0-8.379-6.801-15.179-15.18-15.179h-50.619c-8.393,0-15.191,6.8-15.191,15.179v30.385
		c0,8.379,6.799,15.179,15.191,15.179h50.619c8.379,0,15.18-6.8,15.18-15.179V15.178z"/>
</g>
<g id="Layer_1">
</g>
</svg>
