<?xml version="1.0" encoding="iso-8859-1"?>
<!-- Generator: Adobe Illustrator 16.0.0, SVG Export Plug-In . SVG Version: 6.00 Build 0)  -->
<!DOCTYPE svg PUBLIC "-//W3C//DTD SVG 1.1//EN" "http://www.w3.org/Graphics/SVG/1.1/DTD/svg11.dtd">
<svg version="1.1" xmlns="http://www.w3.org/2000/svg" xmlns:xlink="http://www.w3.org/1999/xlink" x="0px" y="0px"
	 width="188.977px" height="283.46px" viewBox="0 0 188.977 283.46" style="enable-background:new 0 0 188.977 283.46;"
	 xml:space="preserve">
<g id="pin">
	<path style="fill:#4C4B4C;" d="M141.732,94.485c0,26.013-21.232,47.244-47.245,47.244c-26.029,0-47.243-21.231-47.243-47.244
		c0-26.014,21.214-47.245,47.243-47.245C120.5,47.241,141.732,68.472,141.732,94.485z M188.977,94.485
		c0-52.222-42.27-94.488-94.489-94.488C42.251-0.003,0,42.264,0,94.485c0,11.261,1.293,22.878,6.091,33.025l67.36,142.848
		c3.685,8.127,12.166,13.104,21.036,13.104c8.856,0,17.336-4.977,21.215-13.104l67.182-142.848
		C187.684,117.363,188.977,105.746,188.977,94.485z"/>
</g>
<g id="Layer_1">
</g>
</svg>
