<?xml version="1.0" encoding="utf-8"?>
<!-- Generator: Adobe Illustrator 16.0.0, SVG Export Plug-In . SVG Version: 6.00 Build 0)  -->
<!DOCTYPE svg PUBLIC "-//W3C//DTD SVG 1.1//EN" "http://www.w3.org/Graphics/SVG/1.1/DTD/svg11.dtd">
<svg version="1.1" id="Capa_1" xmlns="http://www.w3.org/2000/svg" xmlns:xlink="http://www.w3.org/1999/xlink" x="0px" y="0px"
	 width="512px" height="512px" viewBox="0 0 512 512" enable-background="new 0 0 512 512" xml:space="preserve">
<g>
	<g>
		<path fill="#ADADAD" d="M414.543,355.125c-2.03,0-4.062-0.744-5.646-2.246l-94.997-89.119c-3.318-3.104-3.483-8.337-0.363-11.656
			c3.121-3.351,8.321-3.5,11.673-0.363l94.997,89.119c3.318,3.104,3.483,8.338,0.363,11.656
			C418.935,354.25,416.755,355.125,414.543,355.125z"/>
		<path fill="#ADADAD" d="M97.44,355.125c-2.196,0-4.392-0.875-6.026-2.609c-3.121-3.318-2.956-8.552,0.363-11.656l95.03-89.119
			c3.335-3.104,8.569-2.972,11.672,0.363c3.121,3.319,2.956,8.553-0.363,11.656l-95.03,89.119
			C101.502,354.381,99.471,355.125,97.44,355.125z"/>
	</g>
	<path fill="#ADADAD" d="M470.726,437.987H41.274C18.524,437.987,0,419.479,0,396.713V115.271c0-22.767,18.524-41.274,41.274-41.274
		h429.451c22.751,0,41.274,18.507,41.274,41.274v281.442C512,419.479,493.477,437.987,470.726,437.987z M41.274,90.506
		c-13.654,0-24.765,11.111-24.765,24.765v281.442c0,13.653,11.111,24.765,24.765,24.765h429.451
		c13.653,0,24.765-11.111,24.765-24.765V115.271c0-13.654-11.111-24.765-24.765-24.765H41.274z"/>
	<path fill="#ADADAD" d="M256,297.473c-10.979,0-21.958-3.648-30.312-10.93L13.703,101.617c-3.434-2.988-3.797-8.205-0.809-11.656
		c3.021-3.434,8.222-3.748,11.656-0.792l211.985,184.909c10.55,9.195,28.38,9.195,38.913,0L487.169,89.466
		c3.418-2.988,8.618-2.658,11.656,0.792c2.988,3.451,2.642,8.651-0.792,11.656L286.313,286.526
		C277.941,293.824,266.979,297.473,256,297.473z"/>
</g>
</svg>
