<?xml version="1.0" encoding="utf-8"?>
<!-- Generator: Adobe Illustrator 16.0.0, SVG Export Plug-In . SVG Version: 6.00 Build 0)  -->
<!DOCTYPE svg PUBLIC "-//W3C//DTD SVG 1.1//EN" "http://www.w3.org/Graphics/SVG/1.1/DTD/svg11.dtd">
<svg version="1.1" id="Layer_1" xmlns="http://www.w3.org/2000/svg" xmlns:xlink="http://www.w3.org/1999/xlink" x="0px" y="0px"
	 width="200px" height="200px" viewBox="0 0 200 200" enable-background="new 0 0 200 200" xml:space="preserve">
<path d="M113.954,115.422c-2.726-0.432-2.791-7.926-2.791-7.926s8-7.92,9.749-18.577c4.697,0,7.587-11.33,2.899-15.317
	c0.193-4.199,6.033-32.936-23.518-32.936c-29.55,0-23.715,28.737-23.519,32.936c-4.693,3.988-1.792,15.317,2.897,15.317
	c1.744,10.656,9.753,18.577,9.753,18.577s-0.065,7.494-2.789,7.926c-8.774,1.4-41.544,15.856-41.544,31.702h110.4
	C155.493,131.278,122.724,116.822,113.954,115.422"/>
<g>
	<path d="M100,10c49.626,0,90,40.374,90,90s-40.374,90-90,90s-90-40.374-90-90S50.374,10,100,10 M100,0C44.771,0,0,44.771,0,100
		s44.771,100,100,100s100-44.771,100-100S155.229,0,100,0L100,0z"/>
</g>
</svg>
