<?xml version="1.0" encoding="utf-8"?>
<!-- Generator: Adobe Illustrator 16.0.0, SVG Export Plug-In . SVG Version: 6.00 Build 0)  -->
<!DOCTYPE svg PUBLIC "-//W3C//DTD SVG 1.1//EN" "http://www.w3.org/Graphics/SVG/1.1/DTD/svg11.dtd">
<svg version="1.1" id="Layer_1" xmlns="http://www.w3.org/2000/svg" xmlns:xlink="http://www.w3.org/1999/xlink" x="0px" y="0px"
	 width="283.46px" height="283.46px" viewBox="0 0 283.46 283.46" enable-background="new 0 0 283.46 283.46" xml:space="preserve">
<g id="search">
	<g>
		<path fill="#4C4B4C" d="M280.776,254.864c3.586,3.555,3.586,9.363,0,12.949l-12.965,12.982c-3.57,3.553-9.391,3.553-12.965,0
			l-73.712-73.732c-0.994-0.961-1.645-2.168-2.088-3.405c-18.625,13.63-41.519,21.737-66.339,21.737
			C50.458,225.395,0,174.957,0,112.717C0,50.449,50.458,0,112.707,0c62.23,0,112.706,50.449,112.706,112.717
			c0,24.83-8.141,47.707-21.737,66.312c1.237,0.461,2.413,1.111,3.388,2.092L280.776,254.864z M112.705,37.575
			c-41.503,0-75.15,33.645-75.15,75.142c0,41.476,33.646,75.125,75.15,75.125c41.482,0,75.13-33.648,75.13-75.125
			C187.835,71.221,154.187,37.575,112.705,37.575z"/>
	</g>
</g>
<g id="Layer_1_1_">
</g>
</svg>
