<?xml version="1.0" encoding="iso-8859-1"?>
<!-- Generator: Adobe Illustrator 16.0.0, SVG Export Plug-In . SVG Version: 6.00 Build 0)  -->
<!DOCTYPE svg PUBLIC "-//W3C//DTD SVG 1.1//EN" "http://www.w3.org/Graphics/SVG/1.1/DTD/svg11.dtd">
<svg version="1.1" xmlns="http://www.w3.org/2000/svg" xmlns:xlink="http://www.w3.org/1999/xlink" x="0px" y="0px"
	 width="283.46px" height="283.46px" viewBox="0 0 283.46 283.46" style="enable-background:new 0 0 283.46 283.46;"
	 xml:space="preserve">
<g id="search-close">
	<path style="fill:#4C4B4C;" d="M198.426,176.284c0-2.386-0.957-4.771-2.674-6.489l-28.063-28.062l28.063-28.054
		c1.717-1.727,2.674-4.104,2.674-6.499c0-2.385-0.957-4.772-2.674-6.489l-12.979-12.979c-1.717-1.717-4.104-2.673-6.489-2.673
		s-4.771,0.956-6.489,2.673l-28.062,28.063l-28.063-28.063c-1.718-1.717-4.104-2.673-6.489-2.673c-2.385,0-4.772,0.956-6.489,2.673
		l-12.979,12.979c-1.717,1.717-2.673,4.104-2.673,6.489c0,2.395,0.956,4.771,2.673,6.499l28.064,28.054l-28.064,28.062
		c-1.717,1.719-2.673,4.104-2.673,6.489s0.956,4.772,2.673,6.499l12.979,12.969c1.716,1.717,4.104,2.674,6.489,2.674
		c2.386,0,4.771-0.957,6.489-2.674l28.063-28.055l28.062,28.055c1.719,1.717,4.104,2.674,6.489,2.674s4.772-0.957,6.489-2.674
		l12.979-12.969C197.469,181.057,198.426,178.67,198.426,176.284z"/>
	<g>
		<path style="fill:#4C4B4C;" d="M141.73,20c32.515,0,63.084,12.662,86.076,35.654c22.992,22.992,35.654,53.561,35.654,86.076
			s-12.662,63.084-35.654,86.076c-22.991,22.992-53.561,35.654-86.076,35.654s-63.084-12.662-86.076-35.654
			C32.662,204.814,20,174.245,20,141.73s12.662-63.084,35.654-86.076S109.215,20,141.73,20 M141.73,0C63.455,0,0,63.455,0,141.73
			c0,78.275,63.455,141.73,141.73,141.73c78.275,0,141.73-63.455,141.73-141.73C283.46,63.455,220.005,0,141.73,0L141.73,0z"/>
	</g>
</g>
<g id="Layer_1">
</g>
</svg>
