<?xml version="1.0" encoding="utf-8"?>
<!-- Generator: Adobe Illustrator 16.0.0, SVG Export Plug-In . SVG Version: 6.00 Build 0)  -->
<!DOCTYPE svg PUBLIC "-//W3C//DTD SVG 1.1//EN" "http://www.w3.org/Graphics/SVG/1.1/DTD/svg11.dtd">
<svg version="1.1" id="Layer_1" xmlns="http://www.w3.org/2000/svg" xmlns:xlink="http://www.w3.org/1999/xlink" x="0px" y="0px"
	 width="283.46px" height="283.46px" viewBox="0 0 283.46 283.46" enable-background="new 0 0 283.46 283.46" xml:space="preserve">
<g id="youtube">
	<path fill="#FFFFFF" d="M169.593,216.837c0,6.099-1.836,9.047-5.35,9.047c-2.039,0-4.059-0.93-6.076-2.948v-41.349
		c2.019-2.02,4.037-2.947,6.076-2.947c3.514,0,5.35,3.148,5.35,9.246V216.837z M203.554,194.328v-6.279
		c0-6.26,2.039-9.408,6.097-9.408c4.06,0,6.077,3.148,6.077,9.408v6.279H203.554z M98.183,145.246H55.36v12.922h14.396v78.054
		h13.668v-78.054h14.759V145.246z M135.271,168.503h-12.356v51.666c-2.786,3.855-5.168,5.715-7.753,5.715
		c-1.656,0-2.584-0.93-2.766-2.768c-0.182-0.363-0.182-2.019-0.182-4.785v-49.828H100.02v53.504c0,4.806,0.364,7.955,1.111,9.974
		c1.11,3.515,3.876,5.169,7.752,5.169c4.624,0,9.227-2.785,14.032-8.318v7.391h12.356V168.503z M181.769,188.977
		c0-6.461-0.363-10.884-1.271-13.647c-1.494-5.17-4.806-7.754-9.791-7.754c-4.422,0-8.683,2.584-12.539,7.369v-29.699h-12.377
		v90.977h12.377v-6.643c4.037,4.985,8.297,7.57,12.537,7.57c4.986,0,8.299-2.585,9.793-7.753c0.907-2.767,1.271-7.39,1.271-13.467
		L181.769,188.977L181.769,188.977z M228.104,212.781h-12.56c0,4.805-0.182,7.57-0.182,8.317c-0.746,3.129-2.584,4.784-5.531,4.784
		c-4.24,0-6.278-3.129-6.278-9.408v-11.992h24.551v-14.031c0-7.189-1.292-12.357-3.877-15.869
		c-3.331-4.623-8.317-7.006-14.396-7.006c-6.278,0-11.267,2.383-14.76,7.006c-2.584,3.512-3.693,8.682-3.693,15.869v23.803
		c0,7.209,1.291,12.56,3.877,15.869c3.492,4.625,8.479,7.026,14.939,7.026c6.278,0,11.447-2.401,14.758-7.39
		c1.494-2.221,2.403-4.604,2.787-7.369c0.182-1.292,0.363-3.896,0.363-7.936L228.104,212.781L228.104,212.781z M144.861,60.71
		c0-6.279-2.02-9.59-5.895-9.59c-4.058,0-5.916,3.311-5.916,9.59v28.791c0,6.279,1.857,9.408,5.916,9.408
		c3.875,0,5.895-3.129,5.895-9.408V60.71z M243.227,192.287c0,15.709,0,32.506-3.694,47.991
		c-2.383,10.722-11.246,18.636-21.766,19.929c-25.277,2.766-50.758,2.766-76.034,2.766c-25.278,0-50.757,0-76.035-2.766
		c-10.519-1.293-19.382-9.207-21.785-19.929c-3.674-15.485-3.674-32.282-3.674-47.991l0,0c0-15.869,0.182-32.666,3.674-47.971
		c2.403-10.882,11.266-18.817,21.967-19.927c25.096-2.766,50.575-2.766,75.853-2.766c25.459,0,50.938,0,76.034,2.766
		c10.52,1.11,19.383,9.045,21.967,19.927C243.227,159.621,243.227,176.417,243.227,192.287L243.227,192.287z M103.896,72.158v37.089
		H90.249V72.158c-1.292-6.643-4.058-16.232-8.5-29.154c-2.766-8.5-5.896-16.98-8.662-25.47h14.396l9.772,35.988l9.408-35.988h13.85
		L103.896,72.158z M157.238,87.099c0,7.208-1.292,12.74-3.877,16.071c-3.513,4.603-8.318,7.006-14.395,7.006
		c-6.279,0-11.084-2.403-14.396-7.006c-2.584-3.513-3.876-8.863-3.876-16.071V63.113c0-7.188,1.292-12.538,3.876-16.051
		c3.312-4.624,8.117-7.006,14.396-7.006c6.077,0,10.882,2.382,14.395,7.006c2.585,3.513,3.877,8.863,3.877,16.051V87.099z
		 M190.632,109.247v-7.37c-4.986,5.532-9.59,8.298-14.215,8.298c-3.875,0-6.642-1.656-7.935-4.987
		c-0.728-2.221-1.11-5.351-1.11-10.135V40.965h12.377v50.212c0,2.948,0,4.421,0.183,4.785c0.183,2.039,1.292,2.948,2.946,2.948
		c2.402,0,4.988-1.837,7.754-5.713V40.965h12.375v68.282H190.632z M283.464,53.14c0-29.336-23.803-53.14-53.139-53.14H53.14
		C23.804,0,0,23.804,0,53.14v177.186c0,29.336,23.804,53.141,53.14,53.141h177.186c29.336,0,53.141-23.805,53.141-53.141V53.14
		H283.464z"/>
</g>
<g id="Layer_1_1_">
</g>
</svg>
