<?xml version="1.0" encoding="iso-8859-1"?>
<!-- Generator: Adobe Illustrator 16.0.0, SVG Export Plug-In . SVG Version: 6.00 Build 0)  -->
<!DOCTYPE svg PUBLIC "-//W3C//DTD SVG 1.1//EN" "http://www.w3.org/Graphics/SVG/1.1/DTD/svg11.dtd">
<svg version="1.1" xmlns="http://www.w3.org/2000/svg" xmlns:xlink="http://www.w3.org/1999/xlink" x="0px" y="0px"
	 width="283.46px" height="242.97px" viewBox="0 0 283.46 242.97" style="enable-background:new 0 0 283.46 242.97;"
	 xml:space="preserve">
<g id="like">
	<g>
		<path style="fill:#BFBEBE;" d="M263.211,74.039c0,28.939-29.251,55.832-29.738,56.307l-91.747,88.427L49.83,130.195
			c-0.325-0.324-29.588-27.217-29.588-56.156c0-44.451,30.062-53.785,55.37-53.785c23.573,0,50.142,25.458,58.365,35.266
			c3.793,4.592,11.705,4.592,15.499,0c8.236-9.809,34.805-35.266,58.378-35.266C233.161,20.254,263.211,29.588,263.211,74.039z
			 M283.465,74.039C283.465,27.691,255.149,0,207.854,0c-27.679,0-53.623,21.826-66.127,34.168C129.234,21.826,103.29,0,75.611,0
			C28.315,0,0,27.691,0,74.039C0,112,34.792,143.798,36.065,144.896l98.71,95.229c1.896,1.909,4.417,2.846,6.951,2.846
			c2.534,0,5.067-0.937,6.963-2.846l98.548-94.903C248.66,143.798,283.465,112,283.465,74.039z"/>
	</g>
</g>
<g id="Layer_1">
</g>
</svg>
