<?xml version="1.0" encoding="iso-8859-1"?>
<!-- Generator: Adobe Illustrator 16.0.0, SVG Export Plug-In . SVG Version: 6.00 Build 0)  -->
<!DOCTYPE svg PUBLIC "-//W3C//DTD SVG 1.1//EN" "http://www.w3.org/Graphics/SVG/1.1/DTD/svg11.dtd">
<svg version="1.1" xmlns="http://www.w3.org/2000/svg" xmlns:xlink="http://www.w3.org/1999/xlink" x="0px" y="0px"
	 width="283.46px" height="180.062px" viewBox="0 0 283.46 180.062" style="enable-background:new 0 0 283.46 180.062;"
	 xml:space="preserve">
<g id="google-plus-white">
	<path style="fill-rule:evenodd;clip-rule:evenodd;fill:#FFFFFF;" d="M176.494,72.203c6.021,43.145-12.143,107.859-86.465,107.859
		c-49.723,0-90.031-40.309-90.031-90.031C-0.002,40.308,40.306,0,90.029,0c23.331,0,44.59,8.875,60.584,23.433
		c-18.841,17.793-18.223,18.849-25.629,26.254c-9.251-7.651-19.338-13.14-34.955-13.14c-29.539,0-52.593,23.946-52.593,53.484
		s23.054,53.483,52.593,53.483c29.188,0,41.048-12.587,48.674-35.701c-14.084,0-48.674,0.046-48.674,0.046V72.203
		C90.029,72.203,158.9,72.203,176.494,72.203z"/>
	<path style="fill-rule:evenodd;clip-rule:evenodd;fill:#FFFFFF;" d="M197.889,96.271V73.986h32.09V42.787h22.285v31.199h31.199
		v22.284h-31.199v32.091h-22.285V96.271H197.889z"/>
</g>
<g id="Layer_1">
</g>
</svg>
