<?xml version="1.0" encoding="iso-8859-1"?>
<!-- Generator: Adobe Illustrator 16.0.0, SVG Export Plug-In . SVG Version: 6.00 Build 0)  -->
<!DOCTYPE svg PUBLIC "-//W3C//DTD SVG 1.1//EN" "http://www.w3.org/Graphics/SVG/1.1/DTD/svg11.dtd">
<svg version="1.1" xmlns="http://www.w3.org/2000/svg" xmlns:xlink="http://www.w3.org/1999/xlink" x="0px" y="0px"
	 width="283.46px" height="242.971px" viewBox="0 0 283.46 242.971" style="enable-background:new 0 0 283.46 242.971;"
	 xml:space="preserve">
<g id="comment">
	<path style="fill:#BFBEBE;" d="M141.726,20.241c65.802,0,121.485,37.013,121.485,80.99c0,43.978-55.683,80.991-121.485,80.991
		c-6.801,0-13.765-0.474-20.566-1.26l-9.01-0.949l-6.801,6.003c-12.978,11.406-27.529,20.416-43.502,27.055
		c4.118-7.275,8.062-15.974,11.069-27.204l4.28-15.188l-13.765-7.912c-27.367-15.499-43.19-37.962-43.19-61.536
		C20.241,57.254,75.923,20.241,141.726,20.241z M283.465,101.231C283.465,45.225,220.033,0,141.726,0l0,0
		C63.432,0,0,45.225,0,101.231c0,32.123,20.877,60.75,53.461,79.244c-7.438,26.432-18.819,35.915-28.79,47.146
		c-2.371,2.846-5.054,5.217-4.268,9.185c0,0,0,0,0,0.15c0.786,3.494,3.631,6.015,6.801,6.015c0.162,0,0.474,0,0.786,0
		c6.177-0.799,12.342-1.896,18.033-3.481c27.367-6.951,52.05-19.93,72.766-38.286c7.438,0.786,15.188,1.272,22.937,1.272
		C220.033,202.476,283.465,157.238,283.465,101.231z"/>
</g>
<g id="Layer_1">
</g>
</svg>
