<?xml version="1.0" encoding="utf-8"?>
<!-- Generator: Adobe Illustrator 16.0.0, SVG Export Plug-In . SVG Version: 6.00 Build 0)  -->
<!DOCTYPE svg PUBLIC "-//W3C//DTD SVG 1.1//EN" "http://www.w3.org/Graphics/SVG/1.1/DTD/svg11.dtd">
<svg version="1.1" id="Layer_1" xmlns="http://www.w3.org/2000/svg" xmlns:xlink="http://www.w3.org/1999/xlink" x="0px" y="0px"
	 width="283.46px" height="267.709px" viewBox="0 0 283.46 267.709" enable-background="new 0 0 283.46 267.709"
	 xml:space="preserve">
<g id="ad">
	<polygon fill="#FCFCFC" points="76.864,146.461 103.193,146.461 90.09,112.197 	"/>
	<path fill="#FCFCFC" d="M186.792,108.167h-16.193v54.688h17.04c13.933,0,24.176-11.104,24.176-27.221
		C211.814,119.378,201.095,108.167,186.792,108.167z"/>
	<path fill="#FCFCFC" d="M220.473,0H62.992C28.205,0,0,28.197,0,62.984v141.733c0,34.804,28.205,62.992,62.992,62.992h157.48
		c34.787,0,62.992-28.188,62.992-62.992V62.984C283.464,28.197,255.259,0,220.473,0z M115.819,179.603l-6.551-17.131H70.682
		l-6.551,17.131H44.707L80.924,91.42h19.408l35.618,88.183H115.819z M186.438,179.603h-34.647V91.419h35.371
		c25.836,0,43.83,18.009,43.83,44.092C230.992,161.472,212.768,179.603,186.438,179.603z"/>
</g>
<g id="Layer_1_1_">
</g>
</svg>
