<?xml version="1.0" encoding="utf-8"?>
<!-- Generator: Adobe Illustrator 16.0.0, SVG Export Plug-In . SVG Version: 6.00 Build 0)  -->
<!DOCTYPE svg PUBLIC "-//W3C//DTD SVG 1.1//EN" "http://www.w3.org/Graphics/SVG/1.1/DTD/svg11.dtd">
<svg version="1.1" id="Layer_1" xmlns="http://www.w3.org/2000/svg" xmlns:xlink="http://www.w3.org/1999/xlink" x="0px" y="0px"
	 width="283.46px" height="283.46px" viewBox="0 0 283.46 283.46" enable-background="new 0 0 283.46 283.46" xml:space="preserve">
<g id="XMLID_13_">
	<path id="XMLID_17_" fill="#FFFFFF" d="M198.837,0.44H84.622C38.204,0.44,0.44,38.204,0.44,84.622v114.215
		c0,46.418,37.764,84.183,84.182,84.183h114.215c46.418,0,84.183-37.765,84.183-84.183V84.622
		C283.02,38.204,245.255,0.44,198.837,0.44z M254.591,198.837c0,30.793-24.961,55.756-55.754,55.756H84.622
		c-30.792,0-55.755-24.963-55.755-55.756V84.622c0-30.793,24.962-55.755,55.755-55.755h114.215
		c30.793,0,55.756,24.962,55.756,55.755L254.591,198.837L254.591,198.837z"/>
	<path id="XMLID_81_" fill="#FFFFFF" d="M141.73,68.645c-40.299,0-73.085,32.786-73.085,73.085s32.786,73.085,73.085,73.085
		s73.085-32.786,73.085-73.085S182.029,68.645,141.73,68.645z M141.73,186.388c-24.664,0-44.658-19.994-44.658-44.658
		s19.994-44.658,44.658-44.658s44.658,19.994,44.658,44.658C186.388,166.393,166.393,186.388,141.73,186.388z"/>
	<circle id="XMLID_83_" fill="#FFFFFF" cx="214.955" cy="69.194" r="17.512"/>
</g>
</svg>
