<?xml version="1.0" encoding="utf-8"?>
<!-- Generator: Adobe Illustrator 16.0.0, SVG Export Plug-In . SVG Version: 6.00 Build 0)  -->
<!DOCTYPE svg PUBLIC "-//W3C//DTD SVG 1.1//EN" "http://www.w3.org/Graphics/SVG/1.1/DTD/svg11.dtd">
<svg version="1.1" id="youtube" xmlns="http://www.w3.org/2000/svg" xmlns:xlink="http://www.w3.org/1999/xlink" x="0px" y="0px"
	 width="283.46px" height="283.46px" viewBox="0 0 283.46 283.46" enable-background="new 0 0 283.46 283.46" xml:space="preserve">
<g opacity="0.5">
	<circle fill="#0B223B" cx="141.733" cy="141.732" r="140.315"/>
</g>
<g>
	<path fill="#FFFFFF" d="M141.73,10c35.186,0,68.266,13.702,93.147,38.583c24.881,24.88,38.583,57.96,38.583,93.147
		c0,35.186-13.702,68.266-38.583,93.147s-57.961,38.583-93.147,38.583c-35.187,0-68.267-13.702-93.147-38.583
		C23.702,209.996,10,176.916,10,141.73c0-35.187,13.702-68.267,38.583-93.147C73.463,23.702,106.543,10,141.73,10 M141.73,0
		C63.455,0,0,63.455,0,141.73c0,78.275,63.455,141.73,141.73,141.73c78.275,0,141.73-63.455,141.73-141.73
		C283.46,63.455,220.005,0,141.73,0L141.73,0z"/>
</g>
<polygon fill="#FFFFFF" points="106.667,70.896 106.667,212.563 213.663,141.73 "/>
</svg>
